<?xml version="1.0" encoding="utf-8" standalone="no"?>
<!DOCTYPE svg PUBLIC "-//W3C//DTD SVG 1.1//EN"
  "http://www.w3.org/Graphics/SVG/1.1/DTD/svg11.dtd">
<svg xmlns:xlink="http://www.w3.org/1999/xlink" width="394.423125pt" height="297.190125pt" viewBox="0 0 394.423125 297.190125" xmlns="http://www.w3.org/2000/svg" version="1.1">
 <metadata>
  <rdf:RDF xmlns:dc="http://purl.org/dc/elements/1.1/" xmlns:cc="http://creativecommons.org/ns#" xmlns:rdf="http://www.w3.org/1999/02/22-rdf-syntax-ns#">
   <cc:Work>
    <dc:type rdf:resource="http://purl.org/dc/dcmitype/StillImage"/>
    <dc:date>2025-03-25T19:20:50.749014</dc:date>
    <dc:format>image/svg+xml</dc:format>
    <dc:creator>
     <cc:Agent>
      <dc:title>Matplotlib v3.10.1, https://matplotlib.org/</dc:title>
     </cc:Agent>
    </dc:creator>
   </cc:Work>
  </rdf:RDF>
 </metadata>
 <defs>
  <style type="text/css">*{stroke-linejoin: round; stroke-linecap: butt}</style>
 </defs>
 <g id="figure_1">
  <g id="patch_1">
   <path d="M 0 297.190125 
L 394.423125 297.190125 
L 394.423125 0 
L 0 0 
z
" style="fill: #ffffff"/>
  </g>
  <g id="axes_1">
   <g id="patch_2">
    <path d="M 30.103125 273.312 
L 387.223125 273.312 
L 387.223125 7.2 
L 30.103125 7.2 
z
" style="fill: #ffffff"/>
   </g>
   <g id="matplotlib.axis_1">
    <g id="xtick_1">
     <g id="line2d_1">
      <path d="M 43.71767 273.312 
L 43.71767 7.2 
" clip-path="url(#p21aa0e92a7)" style="fill: none; stroke: #b0b0b0; stroke-width: 0.8; stroke-linecap: square"/>
     </g>
     <g id="line2d_2">
      <defs>
       <path id="m362ea78cbd" d="M 0 0 
L 0 3.5 
" style="stroke: #000000; stroke-width: 0.8"/>
      </defs>
      <g>
       <use xlink:href="#m362ea78cbd" x="43.71767" y="273.312" style="stroke: #000000; stroke-width: 0.8"/>
      </g>
     </g>
     <g id="text_1">
      <!-- 0 -->
      <g transform="translate(40.53642 287.910437) scale(0.1 -0.1)">
       <defs>
        <path id="DejaVuSans-30" d="M 2034 4250 
Q 1547 4250 1301 3770 
Q 1056 3291 1056 2328 
Q 1056 1369 1301 889 
Q 1547 409 2034 409 
Q 2525 409 2770 889 
Q 3016 1369 3016 2328 
Q 3016 3291 2770 3770 
Q 2525 4250 2034 4250 
z
M 2034 4750 
Q 2819 4750 3233 4129 
Q 3647 3509 3647 2328 
Q 3647 1150 3233 529 
Q 2819 -91 2034 -91 
Q 1250 -91 836 529 
Q 422 1150 422 2328 
Q 422 3509 836 4129 
Q 1250 4750 2034 4750 
z
" transform="scale(0.015625)"/>
       </defs>
       <use xlink:href="#DejaVuSans-30"/>
      </g>
     </g>
    </g>
    <g id="xtick_2">
     <g id="line2d_3">
      <path d="M 109.695852 273.312 
L 109.695852 7.2 
" clip-path="url(#p21aa0e92a7)" style="fill: none; stroke: #b0b0b0; stroke-width: 0.8; stroke-linecap: square"/>
     </g>
     <g id="line2d_4">
      <g>
       <use xlink:href="#m362ea78cbd" x="109.695852" y="273.312" style="stroke: #000000; stroke-width: 0.8"/>
      </g>
     </g>
     <g id="text_2">
      <!-- 2 -->
      <g transform="translate(106.514602 287.910437) scale(0.1 -0.1)">
       <defs>
        <path id="DejaVuSans-32" d="M 1228 531 
L 3431 531 
L 3431 0 
L 469 0 
L 469 531 
Q 828 903 1448 1529 
Q 2069 2156 2228 2338 
Q 2531 2678 2651 2914 
Q 2772 3150 2772 3378 
Q 2772 3750 2511 3984 
Q 2250 4219 1831 4219 
Q 1534 4219 1204 4116 
Q 875 4013 500 3803 
L 500 4441 
Q 881 4594 1212 4672 
Q 1544 4750 1819 4750 
Q 2544 4750 2975 4387 
Q 3406 4025 3406 3419 
Q 3406 3131 3298 2873 
Q 3191 2616 2906 2266 
Q 2828 2175 2409 1742 
Q 1991 1309 1228 531 
z
" transform="scale(0.015625)"/>
       </defs>
       <use xlink:href="#DejaVuSans-32"/>
      </g>
     </g>
    </g>
    <g id="xtick_3">
     <g id="line2d_5">
      <path d="M 175.674034 273.312 
L 175.674034 7.2 
" clip-path="url(#p21aa0e92a7)" style="fill: none; stroke: #b0b0b0; stroke-width: 0.8; stroke-linecap: square"/>
     </g>
     <g id="line2d_6">
      <g>
       <use xlink:href="#m362ea78cbd" x="175.674034" y="273.312" style="stroke: #000000; stroke-width: 0.8"/>
      </g>
     </g>
     <g id="text_3">
      <!-- 4 -->
      <g transform="translate(172.492784 287.910437) scale(0.1 -0.1)">
       <defs>
        <path id="DejaVuSans-34" d="M 2419 4116 
L 825 1625 
L 2419 1625 
L 2419 4116 
z
M 2253 4666 
L 3047 4666 
L 3047 1625 
L 3713 1625 
L 3713 1100 
L 3047 1100 
L 3047 0 
L 2419 0 
L 2419 1100 
L 313 1100 
L 313 1709 
L 2253 4666 
z
" transform="scale(0.015625)"/>
       </defs>
       <use xlink:href="#DejaVuSans-34"/>
      </g>
     </g>
    </g>
    <g id="xtick_4">
     <g id="line2d_7">
      <path d="M 241.652216 273.312 
L 241.652216 7.2 
" clip-path="url(#p21aa0e92a7)" style="fill: none; stroke: #b0b0b0; stroke-width: 0.8; stroke-linecap: square"/>
     </g>
     <g id="line2d_8">
      <g>
       <use xlink:href="#m362ea78cbd" x="241.652216" y="273.312" style="stroke: #000000; stroke-width: 0.8"/>
      </g>
     </g>
     <g id="text_4">
      <!-- 6 -->
      <g transform="translate(238.470966 287.910437) scale(0.1 -0.1)">
       <defs>
        <path id="DejaVuSans-36" d="M 2113 2584 
Q 1688 2584 1439 2293 
Q 1191 2003 1191 1497 
Q 1191 994 1439 701 
Q 1688 409 2113 409 
Q 2538 409 2786 701 
Q 3034 994 3034 1497 
Q 3034 2003 2786 2293 
Q 2538 2584 2113 2584 
z
M 3366 4563 
L 3366 3988 
Q 3128 4100 2886 4159 
Q 2644 4219 2406 4219 
Q 1781 4219 1451 3797 
Q 1122 3375 1075 2522 
Q 1259 2794 1537 2939 
Q 1816 3084 2150 3084 
Q 2853 3084 3261 2657 
Q 3669 2231 3669 1497 
Q 3669 778 3244 343 
Q 2819 -91 2113 -91 
Q 1303 -91 875 529 
Q 447 1150 447 2328 
Q 447 3434 972 4092 
Q 1497 4750 2381 4750 
Q 2619 4750 2861 4703 
Q 3103 4656 3366 4563 
z
" transform="scale(0.015625)"/>
       </defs>
       <use xlink:href="#DejaVuSans-36"/>
      </g>
     </g>
    </g>
    <g id="xtick_5">
     <g id="line2d_9">
      <path d="M 307.630398 273.312 
L 307.630398 7.2 
" clip-path="url(#p21aa0e92a7)" style="fill: none; stroke: #b0b0b0; stroke-width: 0.8; stroke-linecap: square"/>
     </g>
     <g id="line2d_10">
      <g>
       <use xlink:href="#m362ea78cbd" x="307.630398" y="273.312" style="stroke: #000000; stroke-width: 0.8"/>
      </g>
     </g>
     <g id="text_5">
      <!-- 8 -->
      <g transform="translate(304.449148 287.910437) scale(0.1 -0.1)">
       <defs>
        <path id="DejaVuSans-38" d="M 2034 2216 
Q 1584 2216 1326 1975 
Q 1069 1734 1069 1313 
Q 1069 891 1326 650 
Q 1584 409 2034 409 
Q 2484 409 2743 651 
Q 3003 894 3003 1313 
Q 3003 1734 2745 1975 
Q 2488 2216 2034 2216 
z
M 1403 2484 
Q 997 2584 770 2862 
Q 544 3141 544 3541 
Q 544 4100 942 4425 
Q 1341 4750 2034 4750 
Q 2731 4750 3128 4425 
Q 3525 4100 3525 3541 
Q 3525 3141 3298 2862 
Q 3072 2584 2669 2484 
Q 3125 2378 3379 2068 
Q 3634 1759 3634 1313 
Q 3634 634 3220 271 
Q 2806 -91 2034 -91 
Q 1263 -91 848 271 
Q 434 634 434 1313 
Q 434 1759 690 2068 
Q 947 2378 1403 2484 
z
M 1172 3481 
Q 1172 3119 1398 2916 
Q 1625 2713 2034 2713 
Q 2441 2713 2670 2916 
Q 2900 3119 2900 3481 
Q 2900 3844 2670 4047 
Q 2441 4250 2034 4250 
Q 1625 4250 1398 4047 
Q 1172 3844 1172 3481 
z
" transform="scale(0.015625)"/>
       </defs>
       <use xlink:href="#DejaVuSans-38"/>
      </g>
     </g>
    </g>
    <g id="xtick_6">
     <g id="line2d_11">
      <path d="M 373.60858 273.312 
L 373.60858 7.2 
" clip-path="url(#p21aa0e92a7)" style="fill: none; stroke: #b0b0b0; stroke-width: 0.8; stroke-linecap: square"/>
     </g>
     <g id="line2d_12">
      <g>
       <use xlink:href="#m362ea78cbd" x="373.60858" y="273.312" style="stroke: #000000; stroke-width: 0.8"/>
      </g>
     </g>
     <g id="text_6">
      <!-- 10 -->
      <g transform="translate(367.24608 287.910437) scale(0.1 -0.1)">
       <defs>
        <path id="DejaVuSans-31" d="M 794 531 
L 1825 531 
L 1825 4091 
L 703 3866 
L 703 4441 
L 1819 4666 
L 2450 4666 
L 2450 531 
L 3481 531 
L 3481 0 
L 794 0 
L 794 531 
z
" transform="scale(0.015625)"/>
       </defs>
       <use xlink:href="#DejaVuSans-31"/>
       <use xlink:href="#DejaVuSans-30" transform="translate(63.623047 0)"/>
      </g>
     </g>
    </g>
   </g>
   <g id="matplotlib.axis_2">
    <g id="ytick_1">
     <g id="line2d_13">
      <path d="M 30.103125 262.056717 
L 387.223125 262.056717 
" clip-path="url(#p21aa0e92a7)" style="fill: none; stroke: #b0b0b0; stroke-width: 0.8; stroke-linecap: square"/>
     </g>
     <g id="line2d_14">
      <defs>
       <path id="ma12351437d" d="M 0 0 
L -3.5 0 
" style="stroke: #000000; stroke-width: 0.8"/>
      </defs>
      <g>
       <use xlink:href="#ma12351437d" x="30.103125" y="262.056717" style="stroke: #000000; stroke-width: 0.8"/>
      </g>
     </g>
     <g id="text_7">
      <!-- 0.0 -->
      <g transform="translate(7.2 265.855936) scale(0.1 -0.1)">
       <defs>
        <path id="DejaVuSans-2e" d="M 684 794 
L 1344 794 
L 1344 0 
L 684 0 
L 684 794 
z
" transform="scale(0.015625)"/>
       </defs>
       <use xlink:href="#DejaVuSans-30"/>
       <use xlink:href="#DejaVuSans-2e" transform="translate(63.623047 0)"/>
       <use xlink:href="#DejaVuSans-30" transform="translate(95.410156 0)"/>
      </g>
     </g>
    </g>
    <g id="ytick_2">
     <g id="line2d_15">
      <path d="M 30.103125 213.504574 
L 387.223125 213.504574 
" clip-path="url(#p21aa0e92a7)" style="fill: none; stroke: #b0b0b0; stroke-width: 0.8; stroke-linecap: square"/>
     </g>
     <g id="line2d_16">
      <g>
       <use xlink:href="#ma12351437d" x="30.103125" y="213.504574" style="stroke: #000000; stroke-width: 0.8"/>
      </g>
     </g>
     <g id="text_8">
      <!-- 0.2 -->
      <g transform="translate(7.2 217.303792) scale(0.1 -0.1)">
       <use xlink:href="#DejaVuSans-30"/>
       <use xlink:href="#DejaVuSans-2e" transform="translate(63.623047 0)"/>
       <use xlink:href="#DejaVuSans-32" transform="translate(95.410156 0)"/>
      </g>
     </g>
    </g>
    <g id="ytick_3">
     <g id="line2d_17">
      <path d="M 30.103125 164.95243 
L 387.223125 164.95243 
" clip-path="url(#p21aa0e92a7)" style="fill: none; stroke: #b0b0b0; stroke-width: 0.8; stroke-linecap: square"/>
     </g>
     <g id="line2d_18">
      <g>
       <use xlink:href="#ma12351437d" x="30.103125" y="164.95243" style="stroke: #000000; stroke-width: 0.8"/>
      </g>
     </g>
     <g id="text_9">
      <!-- 0.4 -->
      <g transform="translate(7.2 168.751649) scale(0.1 -0.1)">
       <use xlink:href="#DejaVuSans-30"/>
       <use xlink:href="#DejaVuSans-2e" transform="translate(63.623047 0)"/>
       <use xlink:href="#DejaVuSans-34" transform="translate(95.410156 0)"/>
      </g>
     </g>
    </g>
    <g id="ytick_4">
     <g id="line2d_19">
      <path d="M 30.103125 116.400287 
L 387.223125 116.400287 
" clip-path="url(#p21aa0e92a7)" style="fill: none; stroke: #b0b0b0; stroke-width: 0.8; stroke-linecap: square"/>
     </g>
     <g id="line2d_20">
      <g>
       <use xlink:href="#ma12351437d" x="30.103125" y="116.400287" style="stroke: #000000; stroke-width: 0.8"/>
      </g>
     </g>
     <g id="text_10">
      <!-- 0.6 -->
      <g transform="translate(7.2 120.199506) scale(0.1 -0.1)">
       <use xlink:href="#DejaVuSans-30"/>
       <use xlink:href="#DejaVuSans-2e" transform="translate(63.623047 0)"/>
       <use xlink:href="#DejaVuSans-36" transform="translate(95.410156 0)"/>
      </g>
     </g>
    </g>
    <g id="ytick_5">
     <g id="line2d_21">
      <path d="M 30.103125 67.848143 
L 387.223125 67.848143 
" clip-path="url(#p21aa0e92a7)" style="fill: none; stroke: #b0b0b0; stroke-width: 0.8; stroke-linecap: square"/>
     </g>
     <g id="line2d_22">
      <g>
       <use xlink:href="#ma12351437d" x="30.103125" y="67.848143" style="stroke: #000000; stroke-width: 0.8"/>
      </g>
     </g>
     <g id="text_11">
      <!-- 0.8 -->
      <g transform="translate(7.2 71.647362) scale(0.1 -0.1)">
       <use xlink:href="#DejaVuSans-30"/>
       <use xlink:href="#DejaVuSans-2e" transform="translate(63.623047 0)"/>
       <use xlink:href="#DejaVuSans-38" transform="translate(95.410156 0)"/>
      </g>
     </g>
    </g>
    <g id="ytick_6">
     <g id="line2d_23">
      <path d="M 30.103125 19.296 
L 387.223125 19.296 
" clip-path="url(#p21aa0e92a7)" style="fill: none; stroke: #b0b0b0; stroke-width: 0.8; stroke-linecap: square"/>
     </g>
     <g id="line2d_24">
      <g>
       <use xlink:href="#ma12351437d" x="30.103125" y="19.296" style="stroke: #000000; stroke-width: 0.8"/>
      </g>
     </g>
     <g id="text_12">
      <!-- 1.0 -->
      <g transform="translate(7.2 23.095219) scale(0.1 -0.1)">
       <use xlink:href="#DejaVuSans-31"/>
       <use xlink:href="#DejaVuSans-2e" transform="translate(63.623047 0)"/>
       <use xlink:href="#DejaVuSans-30" transform="translate(95.410156 0)"/>
      </g>
     </g>
    </g>
   </g>
   <g id="line2d_25">
    <path d="M 46.335852 256.004524 
L 51.572216 243.915186 
L 56.80858 231.87095 
L 62.044943 219.901761 
L 67.281307 208.037375 
L 72.51767 196.307291 
L 77.754034 184.740669 
L 82.990398 173.366268 
L 88.226761 162.212365 
L 93.463125 151.306691 
L 98.699489 140.676358 
L 103.935852 130.347797 
L 109.172216 120.346685 
L 114.40858 110.697886 
L 119.644943 101.425389 
L 124.881307 92.552246 
L 130.11767 84.100519 
L 135.354034 76.091219 
L 140.590398 68.544258 
L 145.826761 61.4784 
L 151.063125 54.911211 
L 156.299489 48.859018 
L 161.535852 43.336869 
L 166.772216 38.358491 
L 172.00858 33.936263 
L 177.244943 30.081178 
L 182.481307 26.80282 
L 187.71767 24.109341 
L 192.954034 22.007437 
L 198.190398 20.502333 
L 203.426761 19.597771 
L 208.663125 19.296 
L 213.899489 19.597771 
L 219.135852 20.502333 
L 224.372216 22.007437 
L 229.60858 24.109341 
L 234.844943 26.80282 
L 240.081307 30.081178 
L 245.31767 33.936263 
L 250.554034 38.358491 
L 255.790398 43.336869 
L 261.026761 48.859018 
L 266.263125 54.911211 
L 271.499489 61.4784 
L 276.735852 68.544258 
L 281.972216 76.091219 
L 287.20858 84.100519 
L 292.444943 92.552246 
L 297.681307 101.425389 
L 302.91767 110.697886 
L 308.154034 120.346685 
L 313.390398 130.347797 
L 318.626761 140.676358 
L 323.863125 151.306691 
L 329.099489 162.212365 
L 334.335852 173.366268 
L 339.572216 184.740669 
L 344.80858 196.307291 
L 350.044943 208.037375 
L 355.281307 219.901761 
L 360.51767 231.87095 
L 365.754034 243.915186 
L 370.990398 256.004524 
" clip-path="url(#p21aa0e92a7)" style="fill: none; stroke: #1f77b4; stroke-width: 1.5; stroke-linecap: square"/>
   </g>
   <g id="line2d_26">
    <path d="M 46.335852 258.361865 
L 51.572216 250.981348 
L 56.80858 243.628366 
L 62.044943 236.321199 
L 67.281307 229.078016 
L 72.51767 221.916822 
L 77.754034 214.855423 
L 82.990398 207.911373 
L 88.226761 201.101937 
L 93.463125 194.444045 
L 98.699489 187.954248 
L 103.935852 181.648681 
L 109.172216 175.543022 
L 114.40858 169.652449 
L 119.644943 163.991608 
L 124.881307 158.574572 
L 130.11767 153.414809 
L 135.354034 148.525148 
L 140.590398 143.917743 
L 145.826761 139.60405 
L 151.063125 135.594794 
L 156.299489 131.899943 
L 161.535852 128.528681 
L 166.772216 125.489392 
L 172.00858 122.78963 
L 177.244943 120.436108 
L 182.481307 118.434678 
L 187.71767 116.790314 
L 192.954034 115.507105 
L 198.190398 114.588242 
L 203.426761 114.036009 
L 208.663125 113.851779 
L 213.899489 114.036009 
L 219.135852 114.588242 
L 224.372216 115.507105 
L 229.60858 116.790314 
L 234.844943 118.434678 
L 240.081307 120.436108 
L 245.31767 122.78963 
L 250.554034 125.489392 
L 255.790398 128.528681 
L 261.026761 131.899943 
L 266.263125 135.594794 
L 271.499489 139.60405 
L 276.735852 143.917743 
L 281.972216 148.525148 
L 287.20858 153.414809 
L 292.444943 158.574572 
L 297.681307 163.991608 
L 302.91767 169.652449 
L 308.154034 175.543022 
L 313.390398 181.648681 
L 318.626761 187.954248 
L 323.863125 194.444045 
L 329.099489 201.101937 
L 334.335852 207.911373 
L 339.572216 214.855423 
L 344.80858 221.916822 
L 350.044943 229.078016 
L 355.281307 236.321199 
L 360.51767 243.628366 
L 365.754034 250.981348 
L 370.990398 258.361865 
" clip-path="url(#p21aa0e92a7)" style="fill: none; stroke: #ff7f0e; stroke-width: 1.5; stroke-linecap: square"/>
   </g>
   <g id="line2d_27">
    <path d="M 46.335852 259.801017 
L 51.572216 255.295226 
L 56.80858 250.806245 
L 62.044943 246.345234 
L 67.281307 241.923285 
L 72.51767 237.55139 
L 77.754034 233.24042 
L 82.990398 229.001091 
L 88.226761 224.843944 
L 93.463125 220.779314 
L 98.699489 216.817306 
L 103.935852 212.96777 
L 109.172216 209.240277 
L 114.40858 205.644094 
L 119.644943 202.188162 
L 124.881307 198.881072 
L 130.11767 195.731047 
L 135.354034 192.745918 
L 140.590398 189.933107 
L 145.826761 187.299606 
L 151.063125 184.851963 
L 156.299489 182.596263 
L 161.535852 180.538115 
L 166.772216 178.682635 
L 172.00858 177.034435 
L 177.244943 175.597615 
L 182.481307 174.375745 
L 187.71767 173.371865 
L 192.954034 172.588468 
L 198.190398 172.027504 
L 203.426761 171.690367 
L 208.663125 171.577895 
L 213.899489 171.690367 
L 219.135852 172.027504 
L 224.372216 172.588468 
L 229.60858 173.371865 
L 234.844943 174.375745 
L 240.081307 175.597615 
L 245.31767 177.034435 
L 250.554034 178.682635 
L 255.790398 180.538115 
L 261.026761 182.596263 
L 266.263125 184.851963 
L 271.499489 187.299606 
L 276.735852 189.933107 
L 281.972216 192.745918 
L 287.20858 195.731047 
L 292.444943 198.881072 
L 297.681307 202.188162 
L 302.91767 205.644094 
L 308.154034 209.240277 
L 313.390398 212.96777 
L 318.626761 216.817306 
L 323.863125 220.779314 
L 329.099489 224.843944 
L 334.335852 229.001091 
L 339.572216 233.24042 
L 344.80858 237.55139 
L 350.044943 241.923285 
L 355.281307 246.345234 
L 360.51767 250.806245 
L 365.754034 255.295226 
L 370.990398 259.801017 
" clip-path="url(#p21aa0e92a7)" style="fill: none; stroke: #2ca02c; stroke-width: 1.5; stroke-linecap: square"/>
   </g>
   <g id="line2d_28">
    <path d="M 46.335852 260.679617 
L 51.572216 257.92884 
L 56.80858 255.188326 
L 62.044943 252.464888 
L 67.281307 249.765296 
L 72.51767 247.096263 
L 77.754034 244.464425 
L 82.990398 241.876323 
L 88.226761 239.338393 
L 93.463125 236.856944 
L 98.699489 234.438146 
L 103.935852 232.088012 
L 109.172216 229.812385 
L 114.40858 227.616922 
L 119.644943 225.507082 
L 124.881307 223.48811 
L 130.11767 221.565026 
L 135.354034 219.742611 
L 140.590398 218.025395 
L 145.826761 216.417648 
L 151.063125 214.923367 
L 156.299489 213.546267 
L 161.535852 212.289771 
L 166.772216 211.157004 
L 172.00858 210.150782 
L 177.244943 209.273606 
L 182.481307 208.527657 
L 187.71767 207.91479 
L 192.954034 207.436528 
L 198.190398 207.09406 
L 203.426761 206.888239 
L 208.663125 206.819575 
L 213.899489 206.888239 
L 219.135852 207.09406 
L 224.372216 207.436528 
L 229.60858 207.91479 
L 234.844943 208.527657 
L 240.081307 209.273606 
L 245.31767 210.150782 
L 250.554034 211.157004 
L 255.790398 212.289771 
L 261.026761 213.546267 
L 266.263125 214.923367 
L 271.499489 216.417648 
L 276.735852 218.025395 
L 281.972216 219.742611 
L 287.20858 221.565026 
L 292.444943 223.48811 
L 297.681307 225.507082 
L 302.91767 227.616922 
L 308.154034 229.812385 
L 313.390398 232.088012 
L 318.626761 234.438146 
L 323.863125 236.856944 
L 329.099489 239.338393 
L 334.335852 241.876323 
L 339.572216 244.464425 
L 344.80858 247.096263 
L 350.044943 249.765296 
L 355.281307 252.464888 
L 360.51767 255.188326 
L 365.754034 257.92884 
L 370.990398 260.679617 
" clip-path="url(#p21aa0e92a7)" style="fill: none; stroke: #d62728; stroke-width: 1.5; stroke-linecap: square"/>
   </g>
   <g id="line2d_29">
    <path d="M 46.335852 261.216 
L 51.572216 259.536656 
L 56.80858 257.863578 
L 62.044943 256.200924 
L 67.281307 254.552829 
L 72.51767 252.92339 
L 77.754034 251.316657 
L 82.990398 249.736626 
L 88.226761 248.187225 
L 93.463125 246.672305 
L 98.699489 245.195634 
L 103.935852 243.760882 
L 109.172216 242.371616 
L 114.40858 241.03129 
L 119.644943 239.743237 
L 124.881307 238.510659 
L 130.11767 237.33662 
L 135.354034 236.224039 
L 140.590398 235.175682 
L 145.826761 234.194156 
L 151.063125 233.2819 
L 156.299489 232.441183 
L 161.535852 231.674095 
L 166.772216 230.982543 
L 172.00858 230.368246 
L 177.244943 229.832732 
L 182.481307 229.377332 
L 187.71767 229.003177 
L 192.954034 228.711199 
L 198.190398 228.502124 
L 203.426761 228.37647 
L 208.663125 228.334551 
L 213.899489 228.37647 
L 219.135852 228.502124 
L 224.372216 228.711199 
L 229.60858 229.003177 
L 234.844943 229.377332 
L 240.081307 229.832732 
L 245.31767 230.368246 
L 250.554034 230.982543 
L 255.790398 231.674095 
L 261.026761 232.441183 
L 266.263125 233.2819 
L 271.499489 234.194156 
L 276.735852 235.175682 
L 281.972216 236.224039 
L 287.20858 237.33662 
L 292.444943 238.510659 
L 297.681307 239.743237 
L 302.91767 241.03129 
L 308.154034 242.371616 
L 313.390398 243.760882 
L 318.626761 245.195634 
L 323.863125 246.672305 
L 329.099489 248.187225 
L 334.335852 249.736626 
L 339.572216 251.316657 
L 344.80858 252.92339 
L 350.044943 254.552829 
L 355.281307 256.200924 
L 360.51767 257.863578 
L 365.754034 259.536656 
L 370.990398 261.216 
" clip-path="url(#p21aa0e92a7)" style="fill: none; stroke: #9467bd; stroke-width: 1.5; stroke-linecap: square"/>
   </g>
   <g id="patch_3">
    <path d="M 30.103125 273.312 
L 30.103125 7.2 
" style="fill: none; stroke: #000000; stroke-width: 0.8; stroke-linejoin: miter; stroke-linecap: square"/>
   </g>
   <g id="patch_4">
    <path d="M 387.223125 273.312 
L 387.223125 7.2 
" style="fill: none; stroke: #000000; stroke-width: 0.8; stroke-linejoin: miter; stroke-linecap: square"/>
   </g>
   <g id="patch_5">
    <path d="M 30.103125 273.312 
L 387.223125 273.312 
" style="fill: none; stroke: #000000; stroke-width: 0.8; stroke-linejoin: miter; stroke-linecap: square"/>
   </g>
   <g id="patch_6">
    <path d="M 30.103125 7.2 
L 387.223125 7.2 
" style="fill: none; stroke: #000000; stroke-width: 0.8; stroke-linejoin: miter; stroke-linecap: square"/>
   </g>
   <g id="legend_1">
    <g id="patch_7">
     <path d="M 231.612188 89.703125 
L 380.223125 89.703125 
Q 382.223125 89.703125 382.223125 87.703125 
L 382.223125 14.2 
Q 382.223125 12.2 380.223125 12.2 
L 231.612188 12.2 
Q 229.612188 12.2 229.612188 14.2 
L 229.612188 87.703125 
Q 229.612188 89.703125 231.612188 89.703125 
z
" style="fill: #ffffff; opacity: 0.8; stroke: #cccccc; stroke-linejoin: miter"/>
    </g>
    <g id="line2d_30">
     <path d="M 233.612188 20.298437 
L 243.612188 20.298437 
L 253.612188 20.298437 
" style="fill: none; stroke: #1f77b4; stroke-width: 1.5; stroke-linecap: square"/>
    </g>
    <g id="text_13">
     <!-- initial -->
     <g transform="translate(261.612188 23.798437) scale(0.1 -0.1)">
      <defs>
       <path id="DejaVuSans-69" d="M 603 3500 
L 1178 3500 
L 1178 0 
L 603 0 
L 603 3500 
z
M 603 4863 
L 1178 4863 
L 1178 4134 
L 603 4134 
L 603 4863 
z
" transform="scale(0.015625)"/>
       <path id="DejaVuSans-6e" d="M 3513 2113 
L 3513 0 
L 2938 0 
L 2938 2094 
Q 2938 2591 2744 2837 
Q 2550 3084 2163 3084 
Q 1697 3084 1428 2787 
Q 1159 2491 1159 1978 
L 1159 0 
L 581 0 
L 581 3500 
L 1159 3500 
L 1159 2956 
Q 1366 3272 1645 3428 
Q 1925 3584 2291 3584 
Q 2894 3584 3203 3211 
Q 3513 2838 3513 2113 
z
" transform="scale(0.015625)"/>
       <path id="DejaVuSans-74" d="M 1172 4494 
L 1172 3500 
L 2356 3500 
L 2356 3053 
L 1172 3053 
L 1172 1153 
Q 1172 725 1289 603 
Q 1406 481 1766 481 
L 2356 481 
L 2356 0 
L 1766 0 
Q 1100 0 847 248 
Q 594 497 594 1153 
L 594 3053 
L 172 3053 
L 172 3500 
L 594 3500 
L 594 4494 
L 1172 4494 
z
" transform="scale(0.015625)"/>
       <path id="DejaVuSans-61" d="M 2194 1759 
Q 1497 1759 1228 1600 
Q 959 1441 959 1056 
Q 959 750 1161 570 
Q 1363 391 1709 391 
Q 2188 391 2477 730 
Q 2766 1069 2766 1631 
L 2766 1759 
L 2194 1759 
z
M 3341 1997 
L 3341 0 
L 2766 0 
L 2766 531 
Q 2569 213 2275 61 
Q 1981 -91 1556 -91 
Q 1019 -91 701 211 
Q 384 513 384 1019 
Q 384 1609 779 1909 
Q 1175 2209 1959 2209 
L 2766 2209 
L 2766 2266 
Q 2766 2663 2505 2880 
Q 2244 3097 1772 3097 
Q 1472 3097 1187 3025 
Q 903 2953 641 2809 
L 641 3341 
Q 956 3463 1253 3523 
Q 1550 3584 1831 3584 
Q 2591 3584 2966 3190 
Q 3341 2797 3341 1997 
z
" transform="scale(0.015625)"/>
       <path id="DejaVuSans-6c" d="M 603 4863 
L 1178 4863 
L 1178 0 
L 603 0 
L 603 4863 
z
" transform="scale(0.015625)"/>
      </defs>
      <use xlink:href="#DejaVuSans-69"/>
      <use xlink:href="#DejaVuSans-6e" transform="translate(27.783203 0)"/>
      <use xlink:href="#DejaVuSans-69" transform="translate(91.162109 0)"/>
      <use xlink:href="#DejaVuSans-74" transform="translate(118.945312 0)"/>
      <use xlink:href="#DejaVuSans-69" transform="translate(158.154297 0)"/>
      <use xlink:href="#DejaVuSans-61" transform="translate(185.9375 0)"/>
      <use xlink:href="#DejaVuSans-6c" transform="translate(247.216797 0)"/>
     </g>
    </g>
    <g id="line2d_31">
     <path d="M 233.612188 34.976562 
L 243.612188 34.976562 
L 253.612188 34.976562 
" style="fill: none; stroke: #ff7f0e; stroke-width: 1.5; stroke-linecap: square"/>
    </g>
    <g id="text_14">
     <!-- analytical at t_max=10 -->
     <g transform="translate(261.612188 38.476562) scale(0.1 -0.1)">
      <defs>
       <path id="DejaVuSans-79" d="M 2059 -325 
Q 1816 -950 1584 -1140 
Q 1353 -1331 966 -1331 
L 506 -1331 
L 506 -850 
L 844 -850 
Q 1081 -850 1212 -737 
Q 1344 -625 1503 -206 
L 1606 56 
L 191 3500 
L 800 3500 
L 1894 763 
L 2988 3500 
L 3597 3500 
L 2059 -325 
z
" transform="scale(0.015625)"/>
       <path id="DejaVuSans-63" d="M 3122 3366 
L 3122 2828 
Q 2878 2963 2633 3030 
Q 2388 3097 2138 3097 
Q 1578 3097 1268 2742 
Q 959 2388 959 1747 
Q 959 1106 1268 751 
Q 1578 397 2138 397 
Q 2388 397 2633 464 
Q 2878 531 3122 666 
L 3122 134 
Q 2881 22 2623 -34 
Q 2366 -91 2075 -91 
Q 1284 -91 818 406 
Q 353 903 353 1747 
Q 353 2603 823 3093 
Q 1294 3584 2113 3584 
Q 2378 3584 2631 3529 
Q 2884 3475 3122 3366 
z
" transform="scale(0.015625)"/>
       <path id="DejaVuSans-20" transform="scale(0.015625)"/>
       <path id="DejaVuSans-5f" d="M 3263 -1063 
L 3263 -1509 
L -63 -1509 
L -63 -1063 
L 3263 -1063 
z
" transform="scale(0.015625)"/>
       <path id="DejaVuSans-6d" d="M 3328 2828 
Q 3544 3216 3844 3400 
Q 4144 3584 4550 3584 
Q 5097 3584 5394 3201 
Q 5691 2819 5691 2113 
L 5691 0 
L 5113 0 
L 5113 2094 
Q 5113 2597 4934 2840 
Q 4756 3084 4391 3084 
Q 3944 3084 3684 2787 
Q 3425 2491 3425 1978 
L 3425 0 
L 2847 0 
L 2847 2094 
Q 2847 2600 2669 2842 
Q 2491 3084 2119 3084 
Q 1678 3084 1418 2786 
Q 1159 2488 1159 1978 
L 1159 0 
L 581 0 
L 581 3500 
L 1159 3500 
L 1159 2956 
Q 1356 3278 1631 3431 
Q 1906 3584 2284 3584 
Q 2666 3584 2933 3390 
Q 3200 3197 3328 2828 
z
" transform="scale(0.015625)"/>
       <path id="DejaVuSans-78" d="M 3513 3500 
L 2247 1797 
L 3578 0 
L 2900 0 
L 1881 1375 
L 863 0 
L 184 0 
L 1544 1831 
L 300 3500 
L 978 3500 
L 1906 2253 
L 2834 3500 
L 3513 3500 
z
" transform="scale(0.015625)"/>
       <path id="DejaVuSans-3d" d="M 678 2906 
L 4684 2906 
L 4684 2381 
L 678 2381 
L 678 2906 
z
M 678 1631 
L 4684 1631 
L 4684 1100 
L 678 1100 
L 678 1631 
z
" transform="scale(0.015625)"/>
      </defs>
      <use xlink:href="#DejaVuSans-61"/>
      <use xlink:href="#DejaVuSans-6e" transform="translate(61.279297 0)"/>
      <use xlink:href="#DejaVuSans-61" transform="translate(124.658203 0)"/>
      <use xlink:href="#DejaVuSans-6c" transform="translate(185.9375 0)"/>
      <use xlink:href="#DejaVuSans-79" transform="translate(213.720703 0)"/>
      <use xlink:href="#DejaVuSans-74" transform="translate(272.900391 0)"/>
      <use xlink:href="#DejaVuSans-69" transform="translate(312.109375 0)"/>
      <use xlink:href="#DejaVuSans-63" transform="translate(339.892578 0)"/>
      <use xlink:href="#DejaVuSans-61" transform="translate(394.873047 0)"/>
      <use xlink:href="#DejaVuSans-6c" transform="translate(456.152344 0)"/>
      <use xlink:href="#DejaVuSans-20" transform="translate(483.935547 0)"/>
      <use xlink:href="#DejaVuSans-61" transform="translate(515.722656 0)"/>
      <use xlink:href="#DejaVuSans-74" transform="translate(577.001953 0)"/>
      <use xlink:href="#DejaVuSans-20" transform="translate(616.210938 0)"/>
      <use xlink:href="#DejaVuSans-74" transform="translate(647.998047 0)"/>
      <use xlink:href="#DejaVuSans-5f" transform="translate(687.207031 0)"/>
      <use xlink:href="#DejaVuSans-6d" transform="translate(737.207031 0)"/>
      <use xlink:href="#DejaVuSans-61" transform="translate(834.619141 0)"/>
      <use xlink:href="#DejaVuSans-78" transform="translate(895.898438 0)"/>
      <use xlink:href="#DejaVuSans-3d" transform="translate(955.078125 0)"/>
      <use xlink:href="#DejaVuSans-31" transform="translate(1038.867188 0)"/>
      <use xlink:href="#DejaVuSans-30" transform="translate(1102.490234 0)"/>
     </g>
    </g>
    <g id="line2d_32">
     <path d="M 233.612188 49.932812 
L 243.612188 49.932812 
L 253.612188 49.932812 
" style="fill: none; stroke: #2ca02c; stroke-width: 1.5; stroke-linecap: square"/>
    </g>
    <g id="text_15">
     <!-- analytical at t_max=10 -->
     <g transform="translate(261.612188 53.432812) scale(0.1 -0.1)">
      <use xlink:href="#DejaVuSans-61"/>
      <use xlink:href="#DejaVuSans-6e" transform="translate(61.279297 0)"/>
      <use xlink:href="#DejaVuSans-61" transform="translate(124.658203 0)"/>
      <use xlink:href="#DejaVuSans-6c" transform="translate(185.9375 0)"/>
      <use xlink:href="#DejaVuSans-79" transform="translate(213.720703 0)"/>
      <use xlink:href="#DejaVuSans-74" transform="translate(272.900391 0)"/>
      <use xlink:href="#DejaVuSans-69" transform="translate(312.109375 0)"/>
      <use xlink:href="#DejaVuSans-63" transform="translate(339.892578 0)"/>
      <use xlink:href="#DejaVuSans-61" transform="translate(394.873047 0)"/>
      <use xlink:href="#DejaVuSans-6c" transform="translate(456.152344 0)"/>
      <use xlink:href="#DejaVuSans-20" transform="translate(483.935547 0)"/>
      <use xlink:href="#DejaVuSans-61" transform="translate(515.722656 0)"/>
      <use xlink:href="#DejaVuSans-74" transform="translate(577.001953 0)"/>
      <use xlink:href="#DejaVuSans-20" transform="translate(616.210938 0)"/>
      <use xlink:href="#DejaVuSans-74" transform="translate(647.998047 0)"/>
      <use xlink:href="#DejaVuSans-5f" transform="translate(687.207031 0)"/>
      <use xlink:href="#DejaVuSans-6d" transform="translate(737.207031 0)"/>
      <use xlink:href="#DejaVuSans-61" transform="translate(834.619141 0)"/>
      <use xlink:href="#DejaVuSans-78" transform="translate(895.898438 0)"/>
      <use xlink:href="#DejaVuSans-3d" transform="translate(955.078125 0)"/>
      <use xlink:href="#DejaVuSans-31" transform="translate(1038.867188 0)"/>
      <use xlink:href="#DejaVuSans-30" transform="translate(1102.490234 0)"/>
     </g>
    </g>
    <g id="line2d_33">
     <path d="M 233.612188 64.889062 
L 243.612188 64.889062 
L 253.612188 64.889062 
" style="fill: none; stroke: #d62728; stroke-width: 1.5; stroke-linecap: square"/>
    </g>
    <g id="text_16">
     <!-- analytical at t_max=10 -->
     <g transform="translate(261.612188 68.389062) scale(0.1 -0.1)">
      <use xlink:href="#DejaVuSans-61"/>
      <use xlink:href="#DejaVuSans-6e" transform="translate(61.279297 0)"/>
      <use xlink:href="#DejaVuSans-61" transform="translate(124.658203 0)"/>
      <use xlink:href="#DejaVuSans-6c" transform="translate(185.9375 0)"/>
      <use xlink:href="#DejaVuSans-79" transform="translate(213.720703 0)"/>
      <use xlink:href="#DejaVuSans-74" transform="translate(272.900391 0)"/>
      <use xlink:href="#DejaVuSans-69" transform="translate(312.109375 0)"/>
      <use xlink:href="#DejaVuSans-63" transform="translate(339.892578 0)"/>
      <use xlink:href="#DejaVuSans-61" transform="translate(394.873047 0)"/>
      <use xlink:href="#DejaVuSans-6c" transform="translate(456.152344 0)"/>
      <use xlink:href="#DejaVuSans-20" transform="translate(483.935547 0)"/>
      <use xlink:href="#DejaVuSans-61" transform="translate(515.722656 0)"/>
      <use xlink:href="#DejaVuSans-74" transform="translate(577.001953 0)"/>
      <use xlink:href="#DejaVuSans-20" transform="translate(616.210938 0)"/>
      <use xlink:href="#DejaVuSans-74" transform="translate(647.998047 0)"/>
      <use xlink:href="#DejaVuSans-5f" transform="translate(687.207031 0)"/>
      <use xlink:href="#DejaVuSans-6d" transform="translate(737.207031 0)"/>
      <use xlink:href="#DejaVuSans-61" transform="translate(834.619141 0)"/>
      <use xlink:href="#DejaVuSans-78" transform="translate(895.898438 0)"/>
      <use xlink:href="#DejaVuSans-3d" transform="translate(955.078125 0)"/>
      <use xlink:href="#DejaVuSans-31" transform="translate(1038.867188 0)"/>
      <use xlink:href="#DejaVuSans-30" transform="translate(1102.490234 0)"/>
     </g>
    </g>
    <g id="line2d_34">
     <path d="M 233.612188 79.845312 
L 243.612188 79.845312 
L 253.612188 79.845312 
" style="fill: none; stroke: #9467bd; stroke-width: 1.5; stroke-linecap: square"/>
    </g>
    <g id="text_17">
     <!-- analytical at t_max=10 -->
     <g transform="translate(261.612188 83.345312) scale(0.1 -0.1)">
      <use xlink:href="#DejaVuSans-61"/>
      <use xlink:href="#DejaVuSans-6e" transform="translate(61.279297 0)"/>
      <use xlink:href="#DejaVuSans-61" transform="translate(124.658203 0)"/>
      <use xlink:href="#DejaVuSans-6c" transform="translate(185.9375 0)"/>
      <use xlink:href="#DejaVuSans-79" transform="translate(213.720703 0)"/>
      <use xlink:href="#DejaVuSans-74" transform="translate(272.900391 0)"/>
      <use xlink:href="#DejaVuSans-69" transform="translate(312.109375 0)"/>
      <use xlink:href="#DejaVuSans-63" transform="translate(339.892578 0)"/>
      <use xlink:href="#DejaVuSans-61" transform="translate(394.873047 0)"/>
      <use xlink:href="#DejaVuSans-6c" transform="translate(456.152344 0)"/>
      <use xlink:href="#DejaVuSans-20" transform="translate(483.935547 0)"/>
      <use xlink:href="#DejaVuSans-61" transform="translate(515.722656 0)"/>
      <use xlink:href="#DejaVuSans-74" transform="translate(577.001953 0)"/>
      <use xlink:href="#DejaVuSans-20" transform="translate(616.210938 0)"/>
      <use xlink:href="#DejaVuSans-74" transform="translate(647.998047 0)"/>
      <use xlink:href="#DejaVuSans-5f" transform="translate(687.207031 0)"/>
      <use xlink:href="#DejaVuSans-6d" transform="translate(737.207031 0)"/>
      <use xlink:href="#DejaVuSans-61" transform="translate(834.619141 0)"/>
      <use xlink:href="#DejaVuSans-78" transform="translate(895.898438 0)"/>
      <use xlink:href="#DejaVuSans-3d" transform="translate(955.078125 0)"/>
      <use xlink:href="#DejaVuSans-31" transform="translate(1038.867188 0)"/>
      <use xlink:href="#DejaVuSans-30" transform="translate(1102.490234 0)"/>
     </g>
    </g>
   </g>
  </g>
 </g>
 <defs>
  <clipPath id="p21aa0e92a7">
   <rect x="30.103125" y="7.2" width="357.12" height="266.112"/>
  </clipPath>
 </defs>
</svg>
