<?xml version="1.0" encoding="utf-8" standalone="no"?>
<!DOCTYPE svg PUBLIC "-//W3C//DTD SVG 1.1//EN"
  "http://www.w3.org/Graphics/SVG/1.1/DTD/svg11.dtd">
<svg xmlns:xlink="http://www.w3.org/1999/xlink" width="720pt" height="432pt" viewBox="0 0 720 432" xmlns="http://www.w3.org/2000/svg" version="1.1">
 <metadata>
  <rdf:RDF xmlns:dc="http://purl.org/dc/elements/1.1/" xmlns:cc="http://creativecommons.org/ns#" xmlns:rdf="http://www.w3.org/1999/02/22-rdf-syntax-ns#">
   <cc:Work>
    <dc:type rdf:resource="http://purl.org/dc/dcmitype/StillImage"/>
    <dc:date>2025-04-15T15:40:29.943702</dc:date>
    <dc:format>image/svg+xml</dc:format>
    <dc:creator>
     <cc:Agent>
      <dc:title>Matplotlib v3.10.1, https://matplotlib.org/</dc:title>
     </cc:Agent>
    </dc:creator>
   </cc:Work>
  </rdf:RDF>
 </metadata>
 <defs>
  <style type="text/css">*{stroke-linejoin: round; stroke-linecap: butt}</style>
 </defs>
 <g id="figure_1">
  <g id="patch_1">
   <path d="M 0 432 
L 720 432 
L 720 0 
L 0 0 
z
" style="fill: #ffffff"/>
  </g>
  <g id="axes_1">
   <g id="patch_2">
    <path d="M 90 384.48 
L 648 384.48 
L 648 51.84 
L 90 51.84 
z
" style="fill: #ffffff"/>
   </g>
   <g id="matplotlib.axis_1">
    <g id="xtick_1">
     <g id="line2d_1">
      <path d="M 115.363636 384.48 
L 115.363636 51.84 
" clip-path="url(#p438f110266)" style="fill: none; stroke: #b0b0b0; stroke-width: 0.8; stroke-linecap: square"/>
     </g>
     <g id="line2d_2">
      <defs>
       <path id="m667e8ac63e" d="M 0 0 
L 0 3.5 
" style="stroke: #000000; stroke-width: 0.8"/>
      </defs>
      <g>
       <use xlink:href="#m667e8ac63e" x="115.363636" y="384.48" style="stroke: #000000; stroke-width: 0.8"/>
      </g>
     </g>
     <g id="text_1">
      <!-- −100 -->
      <g transform="translate(101.630043 399.078438) scale(0.1 -0.1)">
       <defs>
        <path id="DejaVuSans-2212" d="M 678 2272 
L 4684 2272 
L 4684 1741 
L 678 1741 
L 678 2272 
z
" transform="scale(0.015625)"/>
        <path id="DejaVuSans-31" d="M 794 531 
L 1825 531 
L 1825 4091 
L 703 3866 
L 703 4441 
L 1819 4666 
L 2450 4666 
L 2450 531 
L 3481 531 
L 3481 0 
L 794 0 
L 794 531 
z
" transform="scale(0.015625)"/>
        <path id="DejaVuSans-30" d="M 2034 4250 
Q 1547 4250 1301 3770 
Q 1056 3291 1056 2328 
Q 1056 1369 1301 889 
Q 1547 409 2034 409 
Q 2525 409 2770 889 
Q 3016 1369 3016 2328 
Q 3016 3291 2770 3770 
Q 2525 4250 2034 4250 
z
M 2034 4750 
Q 2819 4750 3233 4129 
Q 3647 3509 3647 2328 
Q 3647 1150 3233 529 
Q 2819 -91 2034 -91 
Q 1250 -91 836 529 
Q 422 1150 422 2328 
Q 422 3509 836 4129 
Q 1250 4750 2034 4750 
z
" transform="scale(0.015625)"/>
       </defs>
       <use xlink:href="#DejaVuSans-2212"/>
       <use xlink:href="#DejaVuSans-31" transform="translate(83.789062 0)"/>
       <use xlink:href="#DejaVuSans-30" transform="translate(147.412109 0)"/>
       <use xlink:href="#DejaVuSans-30" transform="translate(211.035156 0)"/>
      </g>
     </g>
    </g>
    <g id="xtick_2">
     <g id="line2d_3">
      <path d="M 178.772727 384.48 
L 178.772727 51.84 
" clip-path="url(#p438f110266)" style="fill: none; stroke: #b0b0b0; stroke-width: 0.8; stroke-linecap: square"/>
     </g>
     <g id="line2d_4">
      <g>
       <use xlink:href="#m667e8ac63e" x="178.772727" y="384.48" style="stroke: #000000; stroke-width: 0.8"/>
      </g>
     </g>
     <g id="text_2">
      <!-- −50 -->
      <g transform="translate(168.220384 399.078438) scale(0.1 -0.1)">
       <defs>
        <path id="DejaVuSans-35" d="M 691 4666 
L 3169 4666 
L 3169 4134 
L 1269 4134 
L 1269 2991 
Q 1406 3038 1543 3061 
Q 1681 3084 1819 3084 
Q 2600 3084 3056 2656 
Q 3513 2228 3513 1497 
Q 3513 744 3044 326 
Q 2575 -91 1722 -91 
Q 1428 -91 1123 -41 
Q 819 9 494 109 
L 494 744 
Q 775 591 1075 516 
Q 1375 441 1709 441 
Q 2250 441 2565 725 
Q 2881 1009 2881 1497 
Q 2881 1984 2565 2268 
Q 2250 2553 1709 2553 
Q 1456 2553 1204 2497 
Q 953 2441 691 2322 
L 691 4666 
z
" transform="scale(0.015625)"/>
       </defs>
       <use xlink:href="#DejaVuSans-2212"/>
       <use xlink:href="#DejaVuSans-35" transform="translate(83.789062 0)"/>
       <use xlink:href="#DejaVuSans-30" transform="translate(147.412109 0)"/>
      </g>
     </g>
    </g>
    <g id="xtick_3">
     <g id="line2d_5">
      <path d="M 242.181818 384.48 
L 242.181818 51.84 
" clip-path="url(#p438f110266)" style="fill: none; stroke: #b0b0b0; stroke-width: 0.8; stroke-linecap: square"/>
     </g>
     <g id="line2d_6">
      <g>
       <use xlink:href="#m667e8ac63e" x="242.181818" y="384.48" style="stroke: #000000; stroke-width: 0.8"/>
      </g>
     </g>
     <g id="text_3">
      <!-- 0 -->
      <g transform="translate(239.000568 399.078438) scale(0.1 -0.1)">
       <use xlink:href="#DejaVuSans-30"/>
      </g>
     </g>
    </g>
    <g id="xtick_4">
     <g id="line2d_7">
      <path d="M 305.590909 384.48 
L 305.590909 51.84 
" clip-path="url(#p438f110266)" style="fill: none; stroke: #b0b0b0; stroke-width: 0.8; stroke-linecap: square"/>
     </g>
     <g id="line2d_8">
      <g>
       <use xlink:href="#m667e8ac63e" x="305.590909" y="384.48" style="stroke: #000000; stroke-width: 0.8"/>
      </g>
     </g>
     <g id="text_4">
      <!-- 50 -->
      <g transform="translate(299.228409 399.078438) scale(0.1 -0.1)">
       <use xlink:href="#DejaVuSans-35"/>
       <use xlink:href="#DejaVuSans-30" transform="translate(63.623047 0)"/>
      </g>
     </g>
    </g>
    <g id="xtick_5">
     <g id="line2d_9">
      <path d="M 369 384.48 
L 369 51.84 
" clip-path="url(#p438f110266)" style="fill: none; stroke: #b0b0b0; stroke-width: 0.8; stroke-linecap: square"/>
     </g>
     <g id="line2d_10">
      <g>
       <use xlink:href="#m667e8ac63e" x="369" y="384.48" style="stroke: #000000; stroke-width: 0.8"/>
      </g>
     </g>
     <g id="text_5">
      <!-- 100 -->
      <g transform="translate(359.45625 399.078438) scale(0.1 -0.1)">
       <use xlink:href="#DejaVuSans-31"/>
       <use xlink:href="#DejaVuSans-30" transform="translate(63.623047 0)"/>
       <use xlink:href="#DejaVuSans-30" transform="translate(127.246094 0)"/>
      </g>
     </g>
    </g>
    <g id="xtick_6">
     <g id="line2d_11">
      <path d="M 432.409091 384.48 
L 432.409091 51.84 
" clip-path="url(#p438f110266)" style="fill: none; stroke: #b0b0b0; stroke-width: 0.8; stroke-linecap: square"/>
     </g>
     <g id="line2d_12">
      <g>
       <use xlink:href="#m667e8ac63e" x="432.409091" y="384.48" style="stroke: #000000; stroke-width: 0.8"/>
      </g>
     </g>
     <g id="text_6">
      <!-- 150 -->
      <g transform="translate(422.865341 399.078438) scale(0.1 -0.1)">
       <use xlink:href="#DejaVuSans-31"/>
       <use xlink:href="#DejaVuSans-35" transform="translate(63.623047 0)"/>
       <use xlink:href="#DejaVuSans-30" transform="translate(127.246094 0)"/>
      </g>
     </g>
    </g>
    <g id="xtick_7">
     <g id="line2d_13">
      <path d="M 495.818182 384.48 
L 495.818182 51.84 
" clip-path="url(#p438f110266)" style="fill: none; stroke: #b0b0b0; stroke-width: 0.8; stroke-linecap: square"/>
     </g>
     <g id="line2d_14">
      <g>
       <use xlink:href="#m667e8ac63e" x="495.818182" y="384.48" style="stroke: #000000; stroke-width: 0.8"/>
      </g>
     </g>
     <g id="text_7">
      <!-- 200 -->
      <g transform="translate(486.274432 399.078438) scale(0.1 -0.1)">
       <defs>
        <path id="DejaVuSans-32" d="M 1228 531 
L 3431 531 
L 3431 0 
L 469 0 
L 469 531 
Q 828 903 1448 1529 
Q 2069 2156 2228 2338 
Q 2531 2678 2651 2914 
Q 2772 3150 2772 3378 
Q 2772 3750 2511 3984 
Q 2250 4219 1831 4219 
Q 1534 4219 1204 4116 
Q 875 4013 500 3803 
L 500 4441 
Q 881 4594 1212 4672 
Q 1544 4750 1819 4750 
Q 2544 4750 2975 4387 
Q 3406 4025 3406 3419 
Q 3406 3131 3298 2873 
Q 3191 2616 2906 2266 
Q 2828 2175 2409 1742 
Q 1991 1309 1228 531 
z
" transform="scale(0.015625)"/>
       </defs>
       <use xlink:href="#DejaVuSans-32"/>
       <use xlink:href="#DejaVuSans-30" transform="translate(63.623047 0)"/>
       <use xlink:href="#DejaVuSans-30" transform="translate(127.246094 0)"/>
      </g>
     </g>
    </g>
    <g id="xtick_8">
     <g id="line2d_15">
      <path d="M 559.227273 384.48 
L 559.227273 51.84 
" clip-path="url(#p438f110266)" style="fill: none; stroke: #b0b0b0; stroke-width: 0.8; stroke-linecap: square"/>
     </g>
     <g id="line2d_16">
      <g>
       <use xlink:href="#m667e8ac63e" x="559.227273" y="384.48" style="stroke: #000000; stroke-width: 0.8"/>
      </g>
     </g>
     <g id="text_8">
      <!-- 250 -->
      <g transform="translate(549.683523 399.078438) scale(0.1 -0.1)">
       <use xlink:href="#DejaVuSans-32"/>
       <use xlink:href="#DejaVuSans-35" transform="translate(63.623047 0)"/>
       <use xlink:href="#DejaVuSans-30" transform="translate(127.246094 0)"/>
      </g>
     </g>
    </g>
    <g id="xtick_9">
     <g id="line2d_17">
      <path d="M 622.636364 384.48 
L 622.636364 51.84 
" clip-path="url(#p438f110266)" style="fill: none; stroke: #b0b0b0; stroke-width: 0.8; stroke-linecap: square"/>
     </g>
     <g id="line2d_18">
      <g>
       <use xlink:href="#m667e8ac63e" x="622.636364" y="384.48" style="stroke: #000000; stroke-width: 0.8"/>
      </g>
     </g>
     <g id="text_9">
      <!-- 300 -->
      <g transform="translate(613.092614 399.078438) scale(0.1 -0.1)">
       <defs>
        <path id="DejaVuSans-33" d="M 2597 2516 
Q 3050 2419 3304 2112 
Q 3559 1806 3559 1356 
Q 3559 666 3084 287 
Q 2609 -91 1734 -91 
Q 1441 -91 1130 -33 
Q 819 25 488 141 
L 488 750 
Q 750 597 1062 519 
Q 1375 441 1716 441 
Q 2309 441 2620 675 
Q 2931 909 2931 1356 
Q 2931 1769 2642 2001 
Q 2353 2234 1838 2234 
L 1294 2234 
L 1294 2753 
L 1863 2753 
Q 2328 2753 2575 2939 
Q 2822 3125 2822 3475 
Q 2822 3834 2567 4026 
Q 2313 4219 1838 4219 
Q 1578 4219 1281 4162 
Q 984 4106 628 3988 
L 628 4550 
Q 988 4650 1302 4700 
Q 1616 4750 1894 4750 
Q 2613 4750 3031 4423 
Q 3450 4097 3450 3541 
Q 3450 3153 3228 2886 
Q 3006 2619 2597 2516 
z
" transform="scale(0.015625)"/>
       </defs>
       <use xlink:href="#DejaVuSans-33"/>
       <use xlink:href="#DejaVuSans-30" transform="translate(63.623047 0)"/>
       <use xlink:href="#DejaVuSans-30" transform="translate(127.246094 0)"/>
      </g>
     </g>
    </g>
    <g id="text_10">
     <!-- x -->
     <g transform="translate(366.040625 412.756563) scale(0.1 -0.1)">
      <defs>
       <path id="DejaVuSans-78" d="M 3513 3500 
L 2247 1797 
L 3578 0 
L 2900 0 
L 1881 1375 
L 863 0 
L 184 0 
L 1544 1831 
L 300 3500 
L 978 3500 
L 1906 2253 
L 2834 3500 
L 3513 3500 
z
" transform="scale(0.015625)"/>
      </defs>
      <use xlink:href="#DejaVuSans-78"/>
     </g>
    </g>
   </g>
   <g id="matplotlib.axis_2">
    <g id="ytick_1">
     <g id="line2d_19">
      <path d="M 90 369.36 
L 648 369.36 
" clip-path="url(#p438f110266)" style="fill: none; stroke: #b0b0b0; stroke-width: 0.8; stroke-linecap: square"/>
     </g>
     <g id="line2d_20">
      <defs>
       <path id="m697994eb73" d="M 0 0 
L -3.5 0 
" style="stroke: #000000; stroke-width: 0.8"/>
      </defs>
      <g>
       <use xlink:href="#m697994eb73" x="90" y="369.36" style="stroke: #000000; stroke-width: 0.8"/>
      </g>
     </g>
     <g id="text_11">
      <!-- 0.0 -->
      <g transform="translate(67.096875 373.159219) scale(0.1 -0.1)">
       <defs>
        <path id="DejaVuSans-2e" d="M 684 794 
L 1344 794 
L 1344 0 
L 684 0 
L 684 794 
z
" transform="scale(0.015625)"/>
       </defs>
       <use xlink:href="#DejaVuSans-30"/>
       <use xlink:href="#DejaVuSans-2e" transform="translate(63.623047 0)"/>
       <use xlink:href="#DejaVuSans-30" transform="translate(95.410156 0)"/>
      </g>
     </g>
    </g>
    <g id="ytick_2">
     <g id="line2d_21">
      <path d="M 90 312.238549 
L 648 312.238549 
" clip-path="url(#p438f110266)" style="fill: none; stroke: #b0b0b0; stroke-width: 0.8; stroke-linecap: square"/>
     </g>
     <g id="line2d_22">
      <g>
       <use xlink:href="#m697994eb73" x="90" y="312.238549" style="stroke: #000000; stroke-width: 0.8"/>
      </g>
     </g>
     <g id="text_12">
      <!-- 0.5 -->
      <g transform="translate(67.096875 316.037768) scale(0.1 -0.1)">
       <use xlink:href="#DejaVuSans-30"/>
       <use xlink:href="#DejaVuSans-2e" transform="translate(63.623047 0)"/>
       <use xlink:href="#DejaVuSans-35" transform="translate(95.410156 0)"/>
      </g>
     </g>
    </g>
    <g id="ytick_3">
     <g id="line2d_23">
      <path d="M 90 255.117098 
L 648 255.117098 
" clip-path="url(#p438f110266)" style="fill: none; stroke: #b0b0b0; stroke-width: 0.8; stroke-linecap: square"/>
     </g>
     <g id="line2d_24">
      <g>
       <use xlink:href="#m697994eb73" x="90" y="255.117098" style="stroke: #000000; stroke-width: 0.8"/>
      </g>
     </g>
     <g id="text_13">
      <!-- 1.0 -->
      <g transform="translate(67.096875 258.916316) scale(0.1 -0.1)">
       <use xlink:href="#DejaVuSans-31"/>
       <use xlink:href="#DejaVuSans-2e" transform="translate(63.623047 0)"/>
       <use xlink:href="#DejaVuSans-30" transform="translate(95.410156 0)"/>
      </g>
     </g>
    </g>
    <g id="ytick_4">
     <g id="line2d_25">
      <path d="M 90 197.995646 
L 648 197.995646 
" clip-path="url(#p438f110266)" style="fill: none; stroke: #b0b0b0; stroke-width: 0.8; stroke-linecap: square"/>
     </g>
     <g id="line2d_26">
      <g>
       <use xlink:href="#m697994eb73" x="90" y="197.995646" style="stroke: #000000; stroke-width: 0.8"/>
      </g>
     </g>
     <g id="text_14">
      <!-- 1.5 -->
      <g transform="translate(67.096875 201.794865) scale(0.1 -0.1)">
       <use xlink:href="#DejaVuSans-31"/>
       <use xlink:href="#DejaVuSans-2e" transform="translate(63.623047 0)"/>
       <use xlink:href="#DejaVuSans-35" transform="translate(95.410156 0)"/>
      </g>
     </g>
    </g>
    <g id="ytick_5">
     <g id="line2d_27">
      <path d="M 90 140.874195 
L 648 140.874195 
" clip-path="url(#p438f110266)" style="fill: none; stroke: #b0b0b0; stroke-width: 0.8; stroke-linecap: square"/>
     </g>
     <g id="line2d_28">
      <g>
       <use xlink:href="#m697994eb73" x="90" y="140.874195" style="stroke: #000000; stroke-width: 0.8"/>
      </g>
     </g>
     <g id="text_15">
      <!-- 2.0 -->
      <g transform="translate(67.096875 144.673414) scale(0.1 -0.1)">
       <use xlink:href="#DejaVuSans-32"/>
       <use xlink:href="#DejaVuSans-2e" transform="translate(63.623047 0)"/>
       <use xlink:href="#DejaVuSans-30" transform="translate(95.410156 0)"/>
      </g>
     </g>
    </g>
    <g id="ytick_6">
     <g id="line2d_29">
      <path d="M 90 83.752744 
L 648 83.752744 
" clip-path="url(#p438f110266)" style="fill: none; stroke: #b0b0b0; stroke-width: 0.8; stroke-linecap: square"/>
     </g>
     <g id="line2d_30">
      <g>
       <use xlink:href="#m697994eb73" x="90" y="83.752744" style="stroke: #000000; stroke-width: 0.8"/>
      </g>
     </g>
     <g id="text_16">
      <!-- 2.5 -->
      <g transform="translate(67.096875 87.551963) scale(0.1 -0.1)">
       <use xlink:href="#DejaVuSans-32"/>
       <use xlink:href="#DejaVuSans-2e" transform="translate(63.623047 0)"/>
       <use xlink:href="#DejaVuSans-35" transform="translate(95.410156 0)"/>
      </g>
     </g>
    </g>
    <g id="text_17">
     <!-- Advected Scalar Field -->
     <g transform="translate(61.017187 271.879531) rotate(-90) scale(0.1 -0.1)">
      <defs>
       <path id="DejaVuSans-41" d="M 2188 4044 
L 1331 1722 
L 3047 1722 
L 2188 4044 
z
M 1831 4666 
L 2547 4666 
L 4325 0 
L 3669 0 
L 3244 1197 
L 1141 1197 
L 716 0 
L 50 0 
L 1831 4666 
z
" transform="scale(0.015625)"/>
       <path id="DejaVuSans-64" d="M 2906 2969 
L 2906 4863 
L 3481 4863 
L 3481 0 
L 2906 0 
L 2906 525 
Q 2725 213 2448 61 
Q 2172 -91 1784 -91 
Q 1150 -91 751 415 
Q 353 922 353 1747 
Q 353 2572 751 3078 
Q 1150 3584 1784 3584 
Q 2172 3584 2448 3432 
Q 2725 3281 2906 2969 
z
M 947 1747 
Q 947 1113 1208 752 
Q 1469 391 1925 391 
Q 2381 391 2643 752 
Q 2906 1113 2906 1747 
Q 2906 2381 2643 2742 
Q 2381 3103 1925 3103 
Q 1469 3103 1208 2742 
Q 947 2381 947 1747 
z
" transform="scale(0.015625)"/>
       <path id="DejaVuSans-76" d="M 191 3500 
L 800 3500 
L 1894 563 
L 2988 3500 
L 3597 3500 
L 2284 0 
L 1503 0 
L 191 3500 
z
" transform="scale(0.015625)"/>
       <path id="DejaVuSans-65" d="M 3597 1894 
L 3597 1613 
L 953 1613 
Q 991 1019 1311 708 
Q 1631 397 2203 397 
Q 2534 397 2845 478 
Q 3156 559 3463 722 
L 3463 178 
Q 3153 47 2828 -22 
Q 2503 -91 2169 -91 
Q 1331 -91 842 396 
Q 353 884 353 1716 
Q 353 2575 817 3079 
Q 1281 3584 2069 3584 
Q 2775 3584 3186 3129 
Q 3597 2675 3597 1894 
z
M 3022 2063 
Q 3016 2534 2758 2815 
Q 2500 3097 2075 3097 
Q 1594 3097 1305 2825 
Q 1016 2553 972 2059 
L 3022 2063 
z
" transform="scale(0.015625)"/>
       <path id="DejaVuSans-63" d="M 3122 3366 
L 3122 2828 
Q 2878 2963 2633 3030 
Q 2388 3097 2138 3097 
Q 1578 3097 1268 2742 
Q 959 2388 959 1747 
Q 959 1106 1268 751 
Q 1578 397 2138 397 
Q 2388 397 2633 464 
Q 2878 531 3122 666 
L 3122 134 
Q 2881 22 2623 -34 
Q 2366 -91 2075 -91 
Q 1284 -91 818 406 
Q 353 903 353 1747 
Q 353 2603 823 3093 
Q 1294 3584 2113 3584 
Q 2378 3584 2631 3529 
Q 2884 3475 3122 3366 
z
" transform="scale(0.015625)"/>
       <path id="DejaVuSans-74" d="M 1172 4494 
L 1172 3500 
L 2356 3500 
L 2356 3053 
L 1172 3053 
L 1172 1153 
Q 1172 725 1289 603 
Q 1406 481 1766 481 
L 2356 481 
L 2356 0 
L 1766 0 
Q 1100 0 847 248 
Q 594 497 594 1153 
L 594 3053 
L 172 3053 
L 172 3500 
L 594 3500 
L 594 4494 
L 1172 4494 
z
" transform="scale(0.015625)"/>
       <path id="DejaVuSans-20" transform="scale(0.015625)"/>
       <path id="DejaVuSans-53" d="M 3425 4513 
L 3425 3897 
Q 3066 4069 2747 4153 
Q 2428 4238 2131 4238 
Q 1616 4238 1336 4038 
Q 1056 3838 1056 3469 
Q 1056 3159 1242 3001 
Q 1428 2844 1947 2747 
L 2328 2669 
Q 3034 2534 3370 2195 
Q 3706 1856 3706 1288 
Q 3706 609 3251 259 
Q 2797 -91 1919 -91 
Q 1588 -91 1214 -16 
Q 841 59 441 206 
L 441 856 
Q 825 641 1194 531 
Q 1563 422 1919 422 
Q 2459 422 2753 634 
Q 3047 847 3047 1241 
Q 3047 1584 2836 1778 
Q 2625 1972 2144 2069 
L 1759 2144 
Q 1053 2284 737 2584 
Q 422 2884 422 3419 
Q 422 4038 858 4394 
Q 1294 4750 2059 4750 
Q 2388 4750 2728 4690 
Q 3069 4631 3425 4513 
z
" transform="scale(0.015625)"/>
       <path id="DejaVuSans-61" d="M 2194 1759 
Q 1497 1759 1228 1600 
Q 959 1441 959 1056 
Q 959 750 1161 570 
Q 1363 391 1709 391 
Q 2188 391 2477 730 
Q 2766 1069 2766 1631 
L 2766 1759 
L 2194 1759 
z
M 3341 1997 
L 3341 0 
L 2766 0 
L 2766 531 
Q 2569 213 2275 61 
Q 1981 -91 1556 -91 
Q 1019 -91 701 211 
Q 384 513 384 1019 
Q 384 1609 779 1909 
Q 1175 2209 1959 2209 
L 2766 2209 
L 2766 2266 
Q 2766 2663 2505 2880 
Q 2244 3097 1772 3097 
Q 1472 3097 1187 3025 
Q 903 2953 641 2809 
L 641 3341 
Q 956 3463 1253 3523 
Q 1550 3584 1831 3584 
Q 2591 3584 2966 3190 
Q 3341 2797 3341 1997 
z
" transform="scale(0.015625)"/>
       <path id="DejaVuSans-6c" d="M 603 4863 
L 1178 4863 
L 1178 0 
L 603 0 
L 603 4863 
z
" transform="scale(0.015625)"/>
       <path id="DejaVuSans-72" d="M 2631 2963 
Q 2534 3019 2420 3045 
Q 2306 3072 2169 3072 
Q 1681 3072 1420 2755 
Q 1159 2438 1159 1844 
L 1159 0 
L 581 0 
L 581 3500 
L 1159 3500 
L 1159 2956 
Q 1341 3275 1631 3429 
Q 1922 3584 2338 3584 
Q 2397 3584 2469 3576 
Q 2541 3569 2628 3553 
L 2631 2963 
z
" transform="scale(0.015625)"/>
       <path id="DejaVuSans-46" d="M 628 4666 
L 3309 4666 
L 3309 4134 
L 1259 4134 
L 1259 2759 
L 3109 2759 
L 3109 2228 
L 1259 2228 
L 1259 0 
L 628 0 
L 628 4666 
z
" transform="scale(0.015625)"/>
       <path id="DejaVuSans-69" d="M 603 3500 
L 1178 3500 
L 1178 0 
L 603 0 
L 603 3500 
z
M 603 4863 
L 1178 4863 
L 1178 4134 
L 603 4134 
L 603 4863 
z
" transform="scale(0.015625)"/>
      </defs>
      <use xlink:href="#DejaVuSans-41"/>
      <use xlink:href="#DejaVuSans-64" transform="translate(66.658203 0)"/>
      <use xlink:href="#DejaVuSans-76" transform="translate(130.134766 0)"/>
      <use xlink:href="#DejaVuSans-65" transform="translate(189.314453 0)"/>
      <use xlink:href="#DejaVuSans-63" transform="translate(250.837891 0)"/>
      <use xlink:href="#DejaVuSans-74" transform="translate(305.818359 0)"/>
      <use xlink:href="#DejaVuSans-65" transform="translate(345.027344 0)"/>
      <use xlink:href="#DejaVuSans-64" transform="translate(406.550781 0)"/>
      <use xlink:href="#DejaVuSans-20" transform="translate(470.027344 0)"/>
      <use xlink:href="#DejaVuSans-53" transform="translate(501.814453 0)"/>
      <use xlink:href="#DejaVuSans-63" transform="translate(565.291016 0)"/>
      <use xlink:href="#DejaVuSans-61" transform="translate(620.271484 0)"/>
      <use xlink:href="#DejaVuSans-6c" transform="translate(681.550781 0)"/>
      <use xlink:href="#DejaVuSans-61" transform="translate(709.333984 0)"/>
      <use xlink:href="#DejaVuSans-72" transform="translate(770.613281 0)"/>
      <use xlink:href="#DejaVuSans-20" transform="translate(811.726562 0)"/>
      <use xlink:href="#DejaVuSans-46" transform="translate(843.513672 0)"/>
      <use xlink:href="#DejaVuSans-69" transform="translate(893.783203 0)"/>
      <use xlink:href="#DejaVuSans-65" transform="translate(921.566406 0)"/>
      <use xlink:href="#DejaVuSans-6c" transform="translate(983.089844 0)"/>
      <use xlink:href="#DejaVuSans-64" transform="translate(1010.873047 0)"/>
     </g>
    </g>
   </g>
   <g id="line2d_31">
    <path d="M 115.363636 369.359574 
L 121.128099 369.359574 
L 121.128099 369.356273 
L 132.657025 369.356273 
L 132.657025 369.333469 
L 144.18595 369.333469 
L 144.18595 369.206375 
L 155.714876 369.206375 
L 155.714876 368.636501 
L 167.243802 368.636501 
L 167.243802 366.588694 
L 178.772727 366.588694 
L 178.772727 360.726221 
L 190.301653 360.726221 
L 190.301653 347.483033 
L 201.830579 347.483033 
L 201.830579 324.273862 
L 213.359504 324.273862 
L 213.359504 293.786646 
L 224.88843 293.786646 
L 224.88843 266.329906 
L 236.417355 266.329906 
L 236.417355 255.117098 
L 247.946281 255.117098 
L 247.946281 266.329906 
L 259.475207 266.329906 
L 259.475207 293.786646 
L 271.004132 293.786646 
L 271.004132 324.273862 
L 282.533058 324.273862 
L 282.533058 347.483033 
L 294.061983 347.483033 
L 294.061983 360.726221 
L 305.590909 360.726221 
L 305.590909 366.588694 
L 317.119835 366.588694 
L 317.119835 368.636501 
L 328.64876 368.636501 
L 328.64876 369.206375 
L 340.177686 369.206375 
L 340.177686 369.333469 
L 351.706612 369.333469 
L 351.706612 369.356273 
L 363.235537 369.356273 
L 363.235537 369.359574 
L 374.764463 369.359574 
L 374.764463 369.35996 
L 386.293388 369.35996 
L 386.293388 369.359997 
L 397.822314 369.359997 
L 397.822314 369.36 
L 409.35124 369.36 
L 409.35124 369.36 
L 420.880165 369.36 
L 420.880165 369.36 
L 432.409091 369.36 
L 432.409091 369.36 
L 443.938017 369.36 
L 443.938017 369.36 
L 455.466942 369.36 
L 455.466942 369.36 
L 466.995868 369.36 
L 466.995868 369.36 
L 478.524793 369.36 
L 478.524793 369.36 
L 490.053719 369.36 
L 490.053719 369.36 
L 501.582645 369.36 
L 501.582645 369.36 
L 513.11157 369.36 
L 513.11157 369.36 
L 524.640496 369.36 
L 524.640496 369.36 
L 536.169421 369.36 
L 536.169421 369.36 
L 547.698347 369.36 
L 547.698347 369.36 
L 559.227273 369.36 
L 559.227273 369.36 
L 570.756198 369.36 
L 570.756198 369.36 
L 582.285124 369.36 
L 582.285124 369.36 
L 593.81405 369.36 
L 593.81405 369.36 
L 605.342975 369.36 
L 605.342975 369.36 
L 616.871901 369.36 
L 616.871901 369.36 
L 622.636364 369.36 
" clip-path="url(#p438f110266)" style="fill: none; stroke: #1f77b4; stroke-width: 1.5; stroke-linecap: square"/>
   </g>
   <g id="line2d_32">
    <path d="M 115.363636 369.36 
L 121.128099 369.36 
L 121.128099 369.36 
L 132.657025 369.36 
L 132.657025 369.36 
L 144.18595 369.36 
L 144.18595 369.36 
L 155.714876 369.36 
L 155.714876 369.36 
L 167.243802 369.36 
L 167.243802 369.36 
L 178.772727 369.36 
L 178.772727 369.36 
L 190.301653 369.36 
L 190.301653 369.36 
L 201.830579 369.36 
L 201.830579 369.36 
L 213.359504 369.36 
L 213.359504 369.36 
L 224.88843 369.36 
L 224.88843 369.36 
L 236.417355 369.36 
L 236.417355 369.36 
L 247.946281 369.36 
L 247.946281 369.359999 
L 259.475207 369.359999 
L 259.475207 369.359989 
L 271.004132 369.359989 
L 271.004132 369.359873 
L 282.533058 369.359873 
L 282.533058 369.358762 
L 294.061983 369.358762 
L 294.061983 369.35019 
L 305.590909 369.35019 
L 305.590909 369.296751 
L 317.119835 369.296751 
L 317.119835 369.028344 
L 328.64876 369.028344 
L 328.64876 367.945528 
L 340.177686 367.945528 
L 340.177686 364.453513 
L 351.706612 364.453513 
L 351.706612 355.517433 
L 363.235537 355.517433 
L 363.235537 337.596212 
L 374.764463 337.596212 
L 374.764463 310.078704 
L 386.293388 310.078704 
L 386.293388 279.37444 
L 397.822314 279.37444 
L 397.822314 258.264186 
L 409.35124 258.264186 
L 409.35124 257.804162 
L 420.880165 257.804162 
L 420.880165 278.251973 
L 432.409091 278.251973 
L 432.409091 308.841143 
L 443.938017 308.841143 
L 443.938017 336.664007 
L 455.466942 336.664007 
L 455.466942 354.992934 
L 466.995868 354.992934 
L 466.995868 364.225344 
L 478.524793 364.225344 
L 478.524793 367.867466 
L 490.053719 367.867466 
L 490.053719 369.007136 
L 501.582645 369.007136 
L 501.582645 369.292148 
L 513.11157 369.292148 
L 513.11157 369.349388 
L 524.640496 369.349388 
L 524.640496 369.35865 
L 536.169421 369.35865 
L 536.169421 369.35986 
L 547.698347 369.35986 
L 547.698347 369.359988 
L 559.227273 369.359988 
L 559.227273 369.359999 
L 570.756198 369.359999 
L 570.756198 369.36 
L 582.285124 369.36 
L 582.285124 369.36 
L 593.81405 369.36 
L 593.81405 369.36 
L 605.342975 369.36 
L 605.342975 369.36 
L 616.871901 369.36 
L 616.871901 369.36 
L 622.636364 369.36 
" clip-path="url(#p438f110266)" style="fill: none; stroke-dasharray: 5.55,2.4; stroke-dashoffset: 0; stroke: #ff7f0e; stroke-width: 1.5"/>
   </g>
   <g id="line2d_33">
    <path d="M 115.363636 369.359574 
L 121.128099 369.359574 
L 121.128099 369.359574 
L 132.657025 369.359574 
L 132.657025 369.359574 
L 144.18595 369.359574 
L 144.18595 369.359574 
L 155.714876 369.359574 
L 155.714876 369.359573 
L 167.243802 369.359573 
L 167.243802 369.359564 
L 178.772727 369.359564 
L 178.772727 369.359513 
L 190.301653 369.359513 
L 190.301653 369.359265 
L 201.830579 369.359265 
L 201.830579 369.358222 
L 213.359504 369.358222 
L 213.359504 369.35434 
L 224.88843 369.35434 
L 224.88843 369.341498 
L 236.417355 369.341498 
L 236.417355 369.303494 
L 247.946281 369.303494 
L 247.946281 369.202392 
L 259.475207 369.202392 
L 259.475207 368.959566 
L 271.004132 368.959566 
L 271.004132 368.431103 
L 282.533058 368.431103 
L 282.533058 367.385822 
L 294.061983 367.385822 
L 294.061983 365.502184 
L 305.590909 365.502184 
L 305.590909 362.404533 
L 317.119835 362.404533 
L 317.119835 357.752365 
L 328.64876 357.752365 
L 328.64876 351.375316 
L 340.177686 351.375316 
L 340.177686 343.416923 
L 351.706612 343.416923 
L 351.706612 334.42728 
L 363.235537 334.42728 
L 363.235537 325.346191 
L 374.764463 325.346191 
L 374.764463 317.351876 
L 386.293388 317.351876 
L 386.293388 311.604753 
L 397.822314 311.604753 
L 397.822314 308.965186 
L 409.35124 308.965186 
L 409.35124 309.781686 
L 420.880165 309.781686 
L 420.880165 313.8212 
L 432.409091 313.8212 
L 432.409091 320.357874 
L 443.938017 320.357874 
L 443.938017 328.378411 
L 455.466942 328.378411 
L 455.466942 336.827186 
L 466.995868 336.827186 
L 466.995868 344.814131 
L 478.524793 344.814131 
L 478.524793 351.736654 
L 490.053719 351.736654 
L 490.053719 357.305545 
L 501.582645 357.305545 
L 501.582645 361.4964 
L 513.11157 361.4964 
L 513.11157 364.462814 
L 524.640496 364.462814 
L 524.640496 366.445706 
L 536.169421 366.445706 
L 536.169421 367.701304 
L 547.698347 367.701304 
L 547.698347 368.456331 
L 559.227273 368.456331 
L 559.227273 368.88837 
L 570.756198 368.88837 
L 570.756198 369.124027 
L 582.285124 369.124027 
L 582.285124 369.246735 
L 593.81405 369.246735 
L 593.81405 369.307811 
L 605.342975 369.307811 
L 605.342975 369.336901 
L 616.871901 369.336901 
L 616.871901 369.36 
L 622.636364 369.36 
" clip-path="url(#p438f110266)" style="fill: none; stroke: #2ca02c; stroke-width: 1.5; stroke-linecap: square"/>
   </g>
   <g id="line2d_34">
    <path d="M 115.363636 369.359574 
L 121.128099 369.359574 
L 121.128099 369.359574 
L 132.657025 369.359574 
L 132.657025 369.359574 
L 144.18595 369.359574 
L 144.18595 369.359574 
L 155.714876 369.359574 
L 155.714876 369.359573 
L 167.243802 369.359573 
L 167.243802 369.359564 
L 178.772727 369.359564 
L 178.772727 369.359513 
L 190.301653 369.359513 
L 190.301653 369.359265 
L 201.830579 369.359265 
L 201.830579 369.358222 
L 213.359504 369.358222 
L 213.359504 369.35434 
L 224.88843 369.35434 
L 224.88843 369.341498 
L 236.417355 369.341498 
L 236.417355 369.303494 
L 247.946281 369.303494 
L 247.946281 369.202392 
L 259.475207 369.202392 
L 259.475207 368.959566 
L 271.004132 368.959566 
L 271.004132 368.431103 
L 282.533058 368.431103 
L 282.533058 367.385822 
L 294.061983 367.385822 
L 294.061983 365.502184 
L 305.590909 365.502184 
L 305.590909 362.404533 
L 317.119835 362.404533 
L 317.119835 357.752365 
L 328.64876 357.752365 
L 328.64876 351.375316 
L 340.177686 351.375316 
L 340.177686 343.416923 
L 351.706612 343.416923 
L 351.706612 334.42728 
L 363.235537 334.42728 
L 363.235537 325.346191 
L 374.764463 325.346191 
L 374.764463 317.351876 
L 386.293388 317.351876 
L 386.293388 311.604753 
L 397.822314 311.604753 
L 397.822314 308.965186 
L 409.35124 308.965186 
L 409.35124 309.781686 
L 420.880165 309.781686 
L 420.880165 313.8212 
L 432.409091 313.8212 
L 432.409091 320.357874 
L 443.938017 320.357874 
L 443.938017 328.378411 
L 455.466942 328.378411 
L 455.466942 336.827186 
L 466.995868 336.827186 
L 466.995868 344.814131 
L 478.524793 344.814131 
L 478.524793 351.736654 
L 490.053719 351.736654 
L 490.053719 357.305545 
L 501.582645 357.305545 
L 501.582645 361.4964 
L 513.11157 361.4964 
L 513.11157 364.462814 
L 524.640496 364.462814 
L 524.640496 366.445706 
L 536.169421 366.445706 
L 536.169421 367.701304 
L 547.698347 367.701304 
L 547.698347 368.456331 
L 559.227273 368.456331 
L 559.227273 368.88837 
L 570.756198 368.88837 
L 570.756198 369.124027 
L 582.285124 369.124027 
L 582.285124 369.246735 
L 593.81405 369.246735 
L 593.81405 369.307811 
L 605.342975 369.307811 
L 605.342975 369.336901 
L 616.871901 369.336901 
L 616.871901 369.36 
L 622.636364 369.36 
" clip-path="url(#p438f110266)" style="fill: none; stroke: #d62728; stroke-width: 1.5; stroke-linecap: square"/>
   </g>
   <g id="line2d_35">
    <path d="M 115.363636 369.359574 
L 121.128099 369.359574 
L 121.128099 369.359575 
L 132.657025 369.359575 
L 132.657025 369.359572 
L 144.18595 369.359572 
L 144.18595 369.359569 
L 155.714876 369.359569 
L 155.714876 369.359581 
L 167.243802 369.359581 
L 167.243802 369.359592 
L 178.772727 369.359592 
L 178.772727 369.359568 
L 190.301653 369.359568 
L 190.301653 369.359525 
L 201.830579 369.359525 
L 201.830579 369.359548 
L 213.359504 369.359548 
L 213.359504 369.359664 
L 224.88843 369.359664 
L 224.88843 369.359752 
L 236.417355 369.359752 
L 236.417355 369.35956 
L 247.946281 369.35956 
L 247.946281 369.358498 
L 259.475207 369.358498 
L 259.475207 369.353957 
L 271.004132 369.353957 
L 271.004132 369.336369 
L 282.533058 369.336369 
L 282.533058 369.274849 
L 294.061983 369.274849 
L 294.061983 369.081664 
L 305.590909 369.081664 
L 305.590909 368.538268 
L 317.119835 368.538268 
L 317.119835 367.163867 
L 328.64876 367.163867 
L 328.64876 364.016574 
L 340.177686 364.016574 
L 340.177686 357.485649 
L 351.706612 357.485649 
L 351.706612 345.402935 
L 363.235537 345.402935 
L 363.235537 326.314953 
L 374.764463 326.314953 
L 374.764463 302.581284 
L 386.293388 302.581284 
L 386.293388 282.754 
L 397.822314 282.754 
L 397.822314 276.60212 
L 409.35124 276.60212 
L 409.35124 284.631257 
L 420.880165 284.631257 
L 420.880165 300.24216 
L 432.409091 300.24216 
L 432.409091 317.706179 
L 443.938017 317.706179 
L 443.938017 333.512159 
L 455.466942 333.512159 
L 455.466942 346.064595 
L 466.995868 346.064595 
L 466.995868 355.104195 
L 478.524793 355.104195 
L 478.524793 361.109932 
L 490.053719 361.109932 
L 490.053719 364.830003 
L 501.582645 364.830003 
L 501.582645 366.993687 
L 513.11157 366.993687 
L 513.11157 368.181459 
L 524.640496 368.181459 
L 524.640496 368.799295 
L 536.169421 368.799295 
L 536.169421 369.104761 
L 547.698347 369.104761 
L 547.698347 369.248674 
L 559.227273 369.248674 
L 559.227273 369.313417 
L 570.756198 369.313417 
L 570.756198 369.34128 
L 582.285124 369.34128 
L 582.285124 369.352768 
L 593.81405 369.352768 
L 593.81405 369.357313 
L 605.342975 369.357313 
L 605.342975 369.359105 
L 616.871901 369.359105 
L 616.871901 369.36 
L 622.636364 369.36 
" clip-path="url(#p438f110266)" style="fill: none; stroke: #9467bd; stroke-width: 1.5; stroke-linecap: square"/>
   </g>
   <g id="line2d_36">
    <path d="M 115.363636 369.359574 
L 121.128099 369.359574 
L 121.128099 369.359714 
L 132.657025 369.359714 
L 132.657025 369.359522 
L 144.18595 369.359522 
L 144.18595 369.359264 
L 155.714876 369.359264 
L 155.714876 369.359481 
L 167.243802 369.359481 
L 167.243802 369.359783 
L 178.772727 369.359783 
L 178.772727 369.359907 
L 190.301653 369.359907 
L 190.301653 369.359637 
L 201.830579 369.359637 
L 201.830579 369.359128 
L 213.359504 369.359128 
L 213.359504 369.35926 
L 224.88843 369.35926 
L 224.88843 369.359587 
L 236.417355 369.359587 
L 236.417355 369.359811 
L 247.946281 369.359811 
L 247.946281 369.359919 
L 259.475207 369.359919 
L 259.475207 369.359957 
L 271.004132 369.359957 
L 271.004132 369.359965 
L 282.533058 369.359965 
L 282.533058 369.359844 
L 294.061983 369.359844 
L 294.061983 369.35714 
L 305.590909 369.35714 
L 305.590909 369.297287 
L 317.119835 369.297287 
L 317.119835 369.192641 
L 328.64876 369.192641 
L 328.64876 369.26968 
L 340.177686 369.26968 
L 340.177686 369.188145 
L 351.706612 369.188145 
L 351.706612 368.124407 
L 363.235537 368.124407 
L 363.235537 356.132764 
L 374.764463 356.132764 
L 374.764463 276.168764 
L 386.293388 276.168764 
L 386.293388 176.846283 
L 397.822314 176.846283 
L 397.822314 221.200905 
L 409.35124 221.200905 
L 409.35124 283.230169 
L 420.880165 283.230169 
L 420.880165 322.579783 
L 432.409091 322.579783 
L 432.409091 344.732969 
L 443.938017 344.732969 
L 443.938017 356.840046 
L 455.466942 356.840046 
L 455.466942 363.25509 
L 466.995868 363.25509 
L 466.995868 366.51314 
L 478.524793 366.51314 
L 478.524793 368.090479 
L 490.053719 368.090479 
L 490.053719 368.81799 
L 501.582645 368.81799 
L 501.582645 369.138123 
L 513.11157 369.138123 
L 513.11157 369.272787 
L 524.640496 369.272787 
L 524.640496 369.32704 
L 536.169421 369.32704 
L 536.169421 369.348009 
L 547.698347 369.348009 
L 547.698347 369.355797 
L 559.227273 369.355797 
L 559.227273 369.358579 
L 570.756198 369.358579 
L 570.756198 369.359536 
L 582.285124 369.359536 
L 582.285124 369.359854 
L 593.81405 369.359854 
L 593.81405 369.359956 
L 605.342975 369.359956 
L 605.342975 369.359989 
L 616.871901 369.359989 
L 616.871901 369.36 
L 622.636364 369.36 
" clip-path="url(#p438f110266)" style="fill: none; stroke: #8c564b; stroke-width: 1.5; stroke-linecap: square"/>
   </g>
   <g id="line2d_37">
    <path d="M 115.363636 369.359574 
L 121.128099 369.359574 
L 121.128099 369.359214 
L 132.657025 369.359214 
L 132.657025 369.358961 
L 144.18595 369.358961 
L 144.18595 369.359499 
L 155.714876 369.359499 
L 155.714876 369.359834 
L 167.243802 369.359834 
L 167.243802 369.359977 
L 178.772727 369.359977 
L 178.772727 369.359929 
L 190.301653 369.359929 
L 190.301653 369.358732 
L 201.830579 369.358732 
L 201.830579 369.358659 
L 213.359504 369.358659 
L 213.359504 369.359496 
L 224.88843 369.359496 
L 224.88843 369.359866 
L 236.417355 369.359866 
L 236.417355 369.359984 
L 247.946281 369.359984 
L 247.946281 369.35922 
L 259.475207 369.35922 
L 259.475207 369.358604 
L 271.004132 369.358604 
L 271.004132 369.359727 
L 282.533058 369.359727 
L 282.533058 369.359641 
L 294.061983 369.359641 
L 294.061983 369.321979 
L 305.590909 369.321979 
L 305.590909 368.101369 
L 317.119835 368.101369 
L 317.119835 368.043554 
L 328.64876 368.043554 
L 328.64876 368.947196 
L 340.177686 368.947196 
L 340.177686 369.310438 
L 351.706612 369.310438 
L 351.706612 367.817608 
L 363.235537 367.817608 
L 363.235537 283.973588 
L 374.764463 283.973588 
L 374.764463 66.96 
L 386.293388 66.96 
L 386.293388 216.488663 
L 397.822314 216.488663 
L 397.822314 314.559447 
L 409.35124 314.559447 
L 409.35124 350.418317 
L 420.880165 350.418317 
L 420.880165 362.568737 
L 432.409091 362.568737 
L 432.409091 366.790273 
L 443.938017 366.790273 
L 443.938017 368.355047 
L 455.466942 368.355047 
L 455.466942 368.969723 
L 466.995868 368.969723 
L 466.995868 369.213609 
L 478.524793 369.213609 
L 478.524793 369.307409 
L 490.053719 369.307409 
L 490.053719 369.341879 
L 501.582645 369.341879 
L 501.582645 369.35399 
L 513.11157 369.35399 
L 513.11157 369.358076 
L 524.640496 369.358076 
L 524.640496 369.359405 
L 536.169421 369.359405 
L 536.169421 369.359822 
L 547.698347 369.359822 
L 547.698347 369.359948 
L 559.227273 369.359948 
L 559.227273 369.359985 
L 570.756198 369.359985 
L 570.756198 369.359996 
L 582.285124 369.359996 
L 582.285124 369.359999 
L 593.81405 369.359999 
L 593.81405 369.36 
L 605.342975 369.36 
L 605.342975 369.36 
L 616.871901 369.36 
L 616.871901 369.36 
L 622.636364 369.36 
" clip-path="url(#p438f110266)" style="fill: none; stroke: #e377c2; stroke-width: 1.5; stroke-linecap: square"/>
   </g>
   <g id="patch_3">
    <path d="M 90 384.48 
L 90 51.84 
" style="fill: none; stroke: #000000; stroke-width: 0.8; stroke-linejoin: miter; stroke-linecap: square"/>
   </g>
   <g id="patch_4">
    <path d="M 648 384.48 
L 648 51.84 
" style="fill: none; stroke: #000000; stroke-width: 0.8; stroke-linejoin: miter; stroke-linecap: square"/>
   </g>
   <g id="patch_5">
    <path d="M 90 384.48 
L 648 384.48 
" style="fill: none; stroke: #000000; stroke-width: 0.8; stroke-linejoin: miter; stroke-linecap: square"/>
   </g>
   <g id="patch_6">
    <path d="M 90 51.84 
L 648 51.84 
" style="fill: none; stroke: #000000; stroke-width: 0.8; stroke-linejoin: miter; stroke-linecap: square"/>
   </g>
   <g id="text_18">
    <!-- Comparison of Analytical and Numerical Solutions (Upwind and MPDATA) -->
    <g transform="translate(150.504375 45.84) scale(0.12 -0.12)">
     <defs>
      <path id="DejaVuSans-43" d="M 4122 4306 
L 4122 3641 
Q 3803 3938 3442 4084 
Q 3081 4231 2675 4231 
Q 1875 4231 1450 3742 
Q 1025 3253 1025 2328 
Q 1025 1406 1450 917 
Q 1875 428 2675 428 
Q 3081 428 3442 575 
Q 3803 722 4122 1019 
L 4122 359 
Q 3791 134 3420 21 
Q 3050 -91 2638 -91 
Q 1578 -91 968 557 
Q 359 1206 359 2328 
Q 359 3453 968 4101 
Q 1578 4750 2638 4750 
Q 3056 4750 3426 4639 
Q 3797 4528 4122 4306 
z
" transform="scale(0.015625)"/>
      <path id="DejaVuSans-6f" d="M 1959 3097 
Q 1497 3097 1228 2736 
Q 959 2375 959 1747 
Q 959 1119 1226 758 
Q 1494 397 1959 397 
Q 2419 397 2687 759 
Q 2956 1122 2956 1747 
Q 2956 2369 2687 2733 
Q 2419 3097 1959 3097 
z
M 1959 3584 
Q 2709 3584 3137 3096 
Q 3566 2609 3566 1747 
Q 3566 888 3137 398 
Q 2709 -91 1959 -91 
Q 1206 -91 779 398 
Q 353 888 353 1747 
Q 353 2609 779 3096 
Q 1206 3584 1959 3584 
z
" transform="scale(0.015625)"/>
      <path id="DejaVuSans-6d" d="M 3328 2828 
Q 3544 3216 3844 3400 
Q 4144 3584 4550 3584 
Q 5097 3584 5394 3201 
Q 5691 2819 5691 2113 
L 5691 0 
L 5113 0 
L 5113 2094 
Q 5113 2597 4934 2840 
Q 4756 3084 4391 3084 
Q 3944 3084 3684 2787 
Q 3425 2491 3425 1978 
L 3425 0 
L 2847 0 
L 2847 2094 
Q 2847 2600 2669 2842 
Q 2491 3084 2119 3084 
Q 1678 3084 1418 2786 
Q 1159 2488 1159 1978 
L 1159 0 
L 581 0 
L 581 3500 
L 1159 3500 
L 1159 2956 
Q 1356 3278 1631 3431 
Q 1906 3584 2284 3584 
Q 2666 3584 2933 3390 
Q 3200 3197 3328 2828 
z
" transform="scale(0.015625)"/>
      <path id="DejaVuSans-70" d="M 1159 525 
L 1159 -1331 
L 581 -1331 
L 581 3500 
L 1159 3500 
L 1159 2969 
Q 1341 3281 1617 3432 
Q 1894 3584 2278 3584 
Q 2916 3584 3314 3078 
Q 3713 2572 3713 1747 
Q 3713 922 3314 415 
Q 2916 -91 2278 -91 
Q 1894 -91 1617 61 
Q 1341 213 1159 525 
z
M 3116 1747 
Q 3116 2381 2855 2742 
Q 2594 3103 2138 3103 
Q 1681 3103 1420 2742 
Q 1159 2381 1159 1747 
Q 1159 1113 1420 752 
Q 1681 391 2138 391 
Q 2594 391 2855 752 
Q 3116 1113 3116 1747 
z
" transform="scale(0.015625)"/>
      <path id="DejaVuSans-73" d="M 2834 3397 
L 2834 2853 
Q 2591 2978 2328 3040 
Q 2066 3103 1784 3103 
Q 1356 3103 1142 2972 
Q 928 2841 928 2578 
Q 928 2378 1081 2264 
Q 1234 2150 1697 2047 
L 1894 2003 
Q 2506 1872 2764 1633 
Q 3022 1394 3022 966 
Q 3022 478 2636 193 
Q 2250 -91 1575 -91 
Q 1294 -91 989 -36 
Q 684 19 347 128 
L 347 722 
Q 666 556 975 473 
Q 1284 391 1588 391 
Q 1994 391 2212 530 
Q 2431 669 2431 922 
Q 2431 1156 2273 1281 
Q 2116 1406 1581 1522 
L 1381 1569 
Q 847 1681 609 1914 
Q 372 2147 372 2553 
Q 372 3047 722 3315 
Q 1072 3584 1716 3584 
Q 2034 3584 2315 3537 
Q 2597 3491 2834 3397 
z
" transform="scale(0.015625)"/>
      <path id="DejaVuSans-6e" d="M 3513 2113 
L 3513 0 
L 2938 0 
L 2938 2094 
Q 2938 2591 2744 2837 
Q 2550 3084 2163 3084 
Q 1697 3084 1428 2787 
Q 1159 2491 1159 1978 
L 1159 0 
L 581 0 
L 581 3500 
L 1159 3500 
L 1159 2956 
Q 1366 3272 1645 3428 
Q 1925 3584 2291 3584 
Q 2894 3584 3203 3211 
Q 3513 2838 3513 2113 
z
" transform="scale(0.015625)"/>
      <path id="DejaVuSans-66" d="M 2375 4863 
L 2375 4384 
L 1825 4384 
Q 1516 4384 1395 4259 
Q 1275 4134 1275 3809 
L 1275 3500 
L 2222 3500 
L 2222 3053 
L 1275 3053 
L 1275 0 
L 697 0 
L 697 3053 
L 147 3053 
L 147 3500 
L 697 3500 
L 697 3744 
Q 697 4328 969 4595 
Q 1241 4863 1831 4863 
L 2375 4863 
z
" transform="scale(0.015625)"/>
      <path id="DejaVuSans-79" d="M 2059 -325 
Q 1816 -950 1584 -1140 
Q 1353 -1331 966 -1331 
L 506 -1331 
L 506 -850 
L 844 -850 
Q 1081 -850 1212 -737 
Q 1344 -625 1503 -206 
L 1606 56 
L 191 3500 
L 800 3500 
L 1894 763 
L 2988 3500 
L 3597 3500 
L 2059 -325 
z
" transform="scale(0.015625)"/>
      <path id="DejaVuSans-4e" d="M 628 4666 
L 1478 4666 
L 3547 763 
L 3547 4666 
L 4159 4666 
L 4159 0 
L 3309 0 
L 1241 3903 
L 1241 0 
L 628 0 
L 628 4666 
z
" transform="scale(0.015625)"/>
      <path id="DejaVuSans-75" d="M 544 1381 
L 544 3500 
L 1119 3500 
L 1119 1403 
Q 1119 906 1312 657 
Q 1506 409 1894 409 
Q 2359 409 2629 706 
Q 2900 1003 2900 1516 
L 2900 3500 
L 3475 3500 
L 3475 0 
L 2900 0 
L 2900 538 
Q 2691 219 2414 64 
Q 2138 -91 1772 -91 
Q 1169 -91 856 284 
Q 544 659 544 1381 
z
M 1991 3584 
L 1991 3584 
z
" transform="scale(0.015625)"/>
      <path id="DejaVuSans-28" d="M 1984 4856 
Q 1566 4138 1362 3434 
Q 1159 2731 1159 2009 
Q 1159 1288 1364 580 
Q 1569 -128 1984 -844 
L 1484 -844 
Q 1016 -109 783 600 
Q 550 1309 550 2009 
Q 550 2706 781 3412 
Q 1013 4119 1484 4856 
L 1984 4856 
z
" transform="scale(0.015625)"/>
      <path id="DejaVuSans-55" d="M 556 4666 
L 1191 4666 
L 1191 1831 
Q 1191 1081 1462 751 
Q 1734 422 2344 422 
Q 2950 422 3222 751 
Q 3494 1081 3494 1831 
L 3494 4666 
L 4128 4666 
L 4128 1753 
Q 4128 841 3676 375 
Q 3225 -91 2344 -91 
Q 1459 -91 1007 375 
Q 556 841 556 1753 
L 556 4666 
z
" transform="scale(0.015625)"/>
      <path id="DejaVuSans-77" d="M 269 3500 
L 844 3500 
L 1563 769 
L 2278 3500 
L 2956 3500 
L 3675 769 
L 4391 3500 
L 4966 3500 
L 4050 0 
L 3372 0 
L 2619 2869 
L 1863 0 
L 1184 0 
L 269 3500 
z
" transform="scale(0.015625)"/>
      <path id="DejaVuSans-4d" d="M 628 4666 
L 1569 4666 
L 2759 1491 
L 3956 4666 
L 4897 4666 
L 4897 0 
L 4281 0 
L 4281 4097 
L 3078 897 
L 2444 897 
L 1241 4097 
L 1241 0 
L 628 0 
L 628 4666 
z
" transform="scale(0.015625)"/>
      <path id="DejaVuSans-50" d="M 1259 4147 
L 1259 2394 
L 2053 2394 
Q 2494 2394 2734 2622 
Q 2975 2850 2975 3272 
Q 2975 3691 2734 3919 
Q 2494 4147 2053 4147 
L 1259 4147 
z
M 628 4666 
L 2053 4666 
Q 2838 4666 3239 4311 
Q 3641 3956 3641 3272 
Q 3641 2581 3239 2228 
Q 2838 1875 2053 1875 
L 1259 1875 
L 1259 0 
L 628 0 
L 628 4666 
z
" transform="scale(0.015625)"/>
      <path id="DejaVuSans-44" d="M 1259 4147 
L 1259 519 
L 2022 519 
Q 2988 519 3436 956 
Q 3884 1394 3884 2338 
Q 3884 3275 3436 3711 
Q 2988 4147 2022 4147 
L 1259 4147 
z
M 628 4666 
L 1925 4666 
Q 3281 4666 3915 4102 
Q 4550 3538 4550 2338 
Q 4550 1131 3912 565 
Q 3275 0 1925 0 
L 628 0 
L 628 4666 
z
" transform="scale(0.015625)"/>
      <path id="DejaVuSans-54" d="M -19 4666 
L 3928 4666 
L 3928 4134 
L 2272 4134 
L 2272 0 
L 1638 0 
L 1638 4134 
L -19 4134 
L -19 4666 
z
" transform="scale(0.015625)"/>
      <path id="DejaVuSans-29" d="M 513 4856 
L 1013 4856 
Q 1481 4119 1714 3412 
Q 1947 2706 1947 2009 
Q 1947 1309 1714 600 
Q 1481 -109 1013 -844 
L 513 -844 
Q 928 -128 1133 580 
Q 1338 1288 1338 2009 
Q 1338 2731 1133 3434 
Q 928 4138 513 4856 
z
" transform="scale(0.015625)"/>
     </defs>
     <use xlink:href="#DejaVuSans-43"/>
     <use xlink:href="#DejaVuSans-6f" transform="translate(69.824219 0)"/>
     <use xlink:href="#DejaVuSans-6d" transform="translate(131.005859 0)"/>
     <use xlink:href="#DejaVuSans-70" transform="translate(228.417969 0)"/>
     <use xlink:href="#DejaVuSans-61" transform="translate(291.894531 0)"/>
     <use xlink:href="#DejaVuSans-72" transform="translate(353.173828 0)"/>
     <use xlink:href="#DejaVuSans-69" transform="translate(394.287109 0)"/>
     <use xlink:href="#DejaVuSans-73" transform="translate(422.070312 0)"/>
     <use xlink:href="#DejaVuSans-6f" transform="translate(474.169922 0)"/>
     <use xlink:href="#DejaVuSans-6e" transform="translate(535.351562 0)"/>
     <use xlink:href="#DejaVuSans-20" transform="translate(598.730469 0)"/>
     <use xlink:href="#DejaVuSans-6f" transform="translate(630.517578 0)"/>
     <use xlink:href="#DejaVuSans-66" transform="translate(691.699219 0)"/>
     <use xlink:href="#DejaVuSans-20" transform="translate(726.904297 0)"/>
     <use xlink:href="#DejaVuSans-41" transform="translate(758.691406 0)"/>
     <use xlink:href="#DejaVuSans-6e" transform="translate(827.099609 0)"/>
     <use xlink:href="#DejaVuSans-61" transform="translate(890.478516 0)"/>
     <use xlink:href="#DejaVuSans-6c" transform="translate(951.757812 0)"/>
     <use xlink:href="#DejaVuSans-79" transform="translate(979.541016 0)"/>
     <use xlink:href="#DejaVuSans-74" transform="translate(1038.720703 0)"/>
     <use xlink:href="#DejaVuSans-69" transform="translate(1077.929688 0)"/>
     <use xlink:href="#DejaVuSans-63" transform="translate(1105.712891 0)"/>
     <use xlink:href="#DejaVuSans-61" transform="translate(1160.693359 0)"/>
     <use xlink:href="#DejaVuSans-6c" transform="translate(1221.972656 0)"/>
     <use xlink:href="#DejaVuSans-20" transform="translate(1249.755859 0)"/>
     <use xlink:href="#DejaVuSans-61" transform="translate(1281.542969 0)"/>
     <use xlink:href="#DejaVuSans-6e" transform="translate(1342.822266 0)"/>
     <use xlink:href="#DejaVuSans-64" transform="translate(1406.201172 0)"/>
     <use xlink:href="#DejaVuSans-20" transform="translate(1469.677734 0)"/>
     <use xlink:href="#DejaVuSans-4e" transform="translate(1501.464844 0)"/>
     <use xlink:href="#DejaVuSans-75" transform="translate(1576.269531 0)"/>
     <use xlink:href="#DejaVuSans-6d" transform="translate(1639.648438 0)"/>
     <use xlink:href="#DejaVuSans-65" transform="translate(1737.060547 0)"/>
     <use xlink:href="#DejaVuSans-72" transform="translate(1798.583984 0)"/>
     <use xlink:href="#DejaVuSans-69" transform="translate(1839.697266 0)"/>
     <use xlink:href="#DejaVuSans-63" transform="translate(1867.480469 0)"/>
     <use xlink:href="#DejaVuSans-61" transform="translate(1922.460938 0)"/>
     <use xlink:href="#DejaVuSans-6c" transform="translate(1983.740234 0)"/>
     <use xlink:href="#DejaVuSans-20" transform="translate(2011.523438 0)"/>
     <use xlink:href="#DejaVuSans-53" transform="translate(2043.310547 0)"/>
     <use xlink:href="#DejaVuSans-6f" transform="translate(2106.787109 0)"/>
     <use xlink:href="#DejaVuSans-6c" transform="translate(2167.96875 0)"/>
     <use xlink:href="#DejaVuSans-75" transform="translate(2195.751953 0)"/>
     <use xlink:href="#DejaVuSans-74" transform="translate(2259.130859 0)"/>
     <use xlink:href="#DejaVuSans-69" transform="translate(2298.339844 0)"/>
     <use xlink:href="#DejaVuSans-6f" transform="translate(2326.123047 0)"/>
     <use xlink:href="#DejaVuSans-6e" transform="translate(2387.304688 0)"/>
     <use xlink:href="#DejaVuSans-73" transform="translate(2450.683594 0)"/>
     <use xlink:href="#DejaVuSans-20" transform="translate(2502.783203 0)"/>
     <use xlink:href="#DejaVuSans-28" transform="translate(2534.570312 0)"/>
     <use xlink:href="#DejaVuSans-55" transform="translate(2573.583984 0)"/>
     <use xlink:href="#DejaVuSans-70" transform="translate(2646.777344 0)"/>
     <use xlink:href="#DejaVuSans-77" transform="translate(2710.253906 0)"/>
     <use xlink:href="#DejaVuSans-69" transform="translate(2792.041016 0)"/>
     <use xlink:href="#DejaVuSans-6e" transform="translate(2819.824219 0)"/>
     <use xlink:href="#DejaVuSans-64" transform="translate(2883.203125 0)"/>
     <use xlink:href="#DejaVuSans-20" transform="translate(2946.679688 0)"/>
     <use xlink:href="#DejaVuSans-61" transform="translate(2978.466797 0)"/>
     <use xlink:href="#DejaVuSans-6e" transform="translate(3039.746094 0)"/>
     <use xlink:href="#DejaVuSans-64" transform="translate(3103.125 0)"/>
     <use xlink:href="#DejaVuSans-20" transform="translate(3166.601562 0)"/>
     <use xlink:href="#DejaVuSans-4d" transform="translate(3198.388672 0)"/>
     <use xlink:href="#DejaVuSans-50" transform="translate(3284.667969 0)"/>
     <use xlink:href="#DejaVuSans-44" transform="translate(3344.970703 0)"/>
     <use xlink:href="#DejaVuSans-41" transform="translate(3420.222656 0)"/>
     <use xlink:href="#DejaVuSans-54" transform="translate(3480.880859 0)"/>
     <use xlink:href="#DejaVuSans-41" transform="translate(3534.214844 0)"/>
     <use xlink:href="#DejaVuSans-29" transform="translate(3602.623047 0)"/>
    </g>
   </g>
   <g id="legend_1">
    <g id="patch_7">
     <path d="M 530.43125 162.586875 
L 641 162.586875 
Q 643 162.586875 643 160.586875 
L 643 58.84 
Q 643 56.84 641 56.84 
L 530.43125 56.84 
Q 528.43125 56.84 528.43125 58.84 
L 528.43125 160.586875 
Q 528.43125 162.586875 530.43125 162.586875 
z
" style="fill: #ffffff; opacity: 0.8; stroke: #cccccc; stroke-linejoin: miter"/>
    </g>
    <g id="line2d_38">
     <path d="M 532.43125 64.938437 
L 537.43125 64.938437 
L 537.43125 64.938437 
L 547.43125 64.938437 
L 547.43125 64.938437 
L 552.43125 64.938437 
" style="fill: none; stroke: #1f77b4; stroke-width: 1.5; stroke-linecap: square"/>
    </g>
    <g id="text_19">
     <!-- Initial Condition -->
     <g transform="translate(560.43125 68.438437) scale(0.1 -0.1)">
      <defs>
       <path id="DejaVuSans-49" d="M 628 4666 
L 1259 4666 
L 1259 0 
L 628 0 
L 628 4666 
z
" transform="scale(0.015625)"/>
      </defs>
      <use xlink:href="#DejaVuSans-49"/>
      <use xlink:href="#DejaVuSans-6e" transform="translate(29.492188 0)"/>
      <use xlink:href="#DejaVuSans-69" transform="translate(92.871094 0)"/>
      <use xlink:href="#DejaVuSans-74" transform="translate(120.654297 0)"/>
      <use xlink:href="#DejaVuSans-69" transform="translate(159.863281 0)"/>
      <use xlink:href="#DejaVuSans-61" transform="translate(187.646484 0)"/>
      <use xlink:href="#DejaVuSans-6c" transform="translate(248.925781 0)"/>
      <use xlink:href="#DejaVuSans-20" transform="translate(276.708984 0)"/>
      <use xlink:href="#DejaVuSans-43" transform="translate(308.496094 0)"/>
      <use xlink:href="#DejaVuSans-6f" transform="translate(378.320312 0)"/>
      <use xlink:href="#DejaVuSans-6e" transform="translate(439.501953 0)"/>
      <use xlink:href="#DejaVuSans-64" transform="translate(502.880859 0)"/>
      <use xlink:href="#DejaVuSans-69" transform="translate(566.357422 0)"/>
      <use xlink:href="#DejaVuSans-74" transform="translate(594.140625 0)"/>
      <use xlink:href="#DejaVuSans-69" transform="translate(633.349609 0)"/>
      <use xlink:href="#DejaVuSans-6f" transform="translate(661.132812 0)"/>
      <use xlink:href="#DejaVuSans-6e" transform="translate(722.314453 0)"/>
     </g>
    </g>
    <g id="line2d_39">
     <path d="M 532.43125 79.616562 
L 537.43125 79.616562 
L 537.43125 79.616562 
L 547.43125 79.616562 
L 547.43125 79.616562 
L 552.43125 79.616562 
" style="fill: none; stroke-dasharray: 5.55,2.4; stroke-dashoffset: 0; stroke: #ff7f0e; stroke-width: 1.5"/>
    </g>
    <g id="text_20">
     <!-- Analytic -->
     <g transform="translate(560.43125 83.116562) scale(0.1 -0.1)">
      <use xlink:href="#DejaVuSans-41"/>
      <use xlink:href="#DejaVuSans-6e" transform="translate(68.408203 0)"/>
      <use xlink:href="#DejaVuSans-61" transform="translate(131.787109 0)"/>
      <use xlink:href="#DejaVuSans-6c" transform="translate(193.066406 0)"/>
      <use xlink:href="#DejaVuSans-79" transform="translate(220.849609 0)"/>
      <use xlink:href="#DejaVuSans-74" transform="translate(280.029297 0)"/>
      <use xlink:href="#DejaVuSans-69" transform="translate(319.238281 0)"/>
      <use xlink:href="#DejaVuSans-63" transform="translate(347.021484 0)"/>
     </g>
    </g>
    <g id="line2d_40">
     <path d="M 532.43125 94.294687 
L 537.43125 94.294687 
L 537.43125 94.294687 
L 547.43125 94.294687 
L 547.43125 94.294687 
L 552.43125 94.294687 
" style="fill: none; stroke: #2ca02c; stroke-width: 1.5; stroke-linecap: square"/>
    </g>
    <g id="text_21">
     <!-- Upwind -->
     <g transform="translate(560.43125 97.794687) scale(0.1 -0.1)">
      <use xlink:href="#DejaVuSans-55"/>
      <use xlink:href="#DejaVuSans-70" transform="translate(73.193359 0)"/>
      <use xlink:href="#DejaVuSans-77" transform="translate(136.669922 0)"/>
      <use xlink:href="#DejaVuSans-69" transform="translate(218.457031 0)"/>
      <use xlink:href="#DejaVuSans-6e" transform="translate(246.240234 0)"/>
      <use xlink:href="#DejaVuSans-64" transform="translate(309.619141 0)"/>
     </g>
    </g>
    <g id="line2d_41">
     <path d="M 532.43125 108.972812 
L 537.43125 108.972812 
L 537.43125 108.972812 
L 547.43125 108.972812 
L 547.43125 108.972812 
L 552.43125 108.972812 
" style="fill: none; stroke: #d62728; stroke-width: 1.5; stroke-linecap: square"/>
    </g>
    <g id="text_22">
     <!-- MPDATA M=1 -->
     <g transform="translate(560.43125 112.472812) scale(0.1 -0.1)">
      <defs>
       <path id="DejaVuSans-3d" d="M 678 2906 
L 4684 2906 
L 4684 2381 
L 678 2381 
L 678 2906 
z
M 678 1631 
L 4684 1631 
L 4684 1100 
L 678 1100 
L 678 1631 
z
" transform="scale(0.015625)"/>
      </defs>
      <use xlink:href="#DejaVuSans-4d"/>
      <use xlink:href="#DejaVuSans-50" transform="translate(86.279297 0)"/>
      <use xlink:href="#DejaVuSans-44" transform="translate(146.582031 0)"/>
      <use xlink:href="#DejaVuSans-41" transform="translate(221.833984 0)"/>
      <use xlink:href="#DejaVuSans-54" transform="translate(282.492188 0)"/>
      <use xlink:href="#DejaVuSans-41" transform="translate(335.826172 0)"/>
      <use xlink:href="#DejaVuSans-20" transform="translate(404.234375 0)"/>
      <use xlink:href="#DejaVuSans-4d" transform="translate(436.021484 0)"/>
      <use xlink:href="#DejaVuSans-3d" transform="translate(522.300781 0)"/>
      <use xlink:href="#DejaVuSans-31" transform="translate(606.089844 0)"/>
     </g>
    </g>
    <g id="line2d_42">
     <path d="M 532.43125 123.650937 
L 537.43125 123.650937 
L 537.43125 123.650937 
L 547.43125 123.650937 
L 547.43125 123.650937 
L 552.43125 123.650937 
" style="fill: none; stroke: #9467bd; stroke-width: 1.5; stroke-linecap: square"/>
    </g>
    <g id="text_23">
     <!-- MPDATA M=2 -->
     <g transform="translate(560.43125 127.150937) scale(0.1 -0.1)">
      <use xlink:href="#DejaVuSans-4d"/>
      <use xlink:href="#DejaVuSans-50" transform="translate(86.279297 0)"/>
      <use xlink:href="#DejaVuSans-44" transform="translate(146.582031 0)"/>
      <use xlink:href="#DejaVuSans-41" transform="translate(221.833984 0)"/>
      <use xlink:href="#DejaVuSans-54" transform="translate(282.492188 0)"/>
      <use xlink:href="#DejaVuSans-41" transform="translate(335.826172 0)"/>
      <use xlink:href="#DejaVuSans-20" transform="translate(404.234375 0)"/>
      <use xlink:href="#DejaVuSans-4d" transform="translate(436.021484 0)"/>
      <use xlink:href="#DejaVuSans-3d" transform="translate(522.300781 0)"/>
      <use xlink:href="#DejaVuSans-32" transform="translate(606.089844 0)"/>
     </g>
    </g>
    <g id="line2d_43">
     <path d="M 532.43125 138.329062 
L 537.43125 138.329062 
L 537.43125 138.329062 
L 547.43125 138.329062 
L 547.43125 138.329062 
L 552.43125 138.329062 
" style="fill: none; stroke: #8c564b; stroke-width: 1.5; stroke-linecap: square"/>
    </g>
    <g id="text_24">
     <!-- MPDATA M=3 -->
     <g transform="translate(560.43125 141.829062) scale(0.1 -0.1)">
      <use xlink:href="#DejaVuSans-4d"/>
      <use xlink:href="#DejaVuSans-50" transform="translate(86.279297 0)"/>
      <use xlink:href="#DejaVuSans-44" transform="translate(146.582031 0)"/>
      <use xlink:href="#DejaVuSans-41" transform="translate(221.833984 0)"/>
      <use xlink:href="#DejaVuSans-54" transform="translate(282.492188 0)"/>
      <use xlink:href="#DejaVuSans-41" transform="translate(335.826172 0)"/>
      <use xlink:href="#DejaVuSans-20" transform="translate(404.234375 0)"/>
      <use xlink:href="#DejaVuSans-4d" transform="translate(436.021484 0)"/>
      <use xlink:href="#DejaVuSans-3d" transform="translate(522.300781 0)"/>
      <use xlink:href="#DejaVuSans-33" transform="translate(606.089844 0)"/>
     </g>
    </g>
    <g id="line2d_44">
     <path d="M 532.43125 153.007187 
L 537.43125 153.007187 
L 537.43125 153.007187 
L 547.43125 153.007187 
L 547.43125 153.007187 
L 552.43125 153.007187 
" style="fill: none; stroke: #e377c2; stroke-width: 1.5; stroke-linecap: square"/>
    </g>
    <g id="text_25">
     <!-- MPDATA M=4 -->
     <g transform="translate(560.43125 156.507187) scale(0.1 -0.1)">
      <defs>
       <path id="DejaVuSans-34" d="M 2419 4116 
L 825 1625 
L 2419 1625 
L 2419 4116 
z
M 2253 4666 
L 3047 4666 
L 3047 1625 
L 3713 1625 
L 3713 1100 
L 3047 1100 
L 3047 0 
L 2419 0 
L 2419 1100 
L 313 1100 
L 313 1709 
L 2253 4666 
z
" transform="scale(0.015625)"/>
      </defs>
      <use xlink:href="#DejaVuSans-4d"/>
      <use xlink:href="#DejaVuSans-50" transform="translate(86.279297 0)"/>
      <use xlink:href="#DejaVuSans-44" transform="translate(146.582031 0)"/>
      <use xlink:href="#DejaVuSans-41" transform="translate(221.833984 0)"/>
      <use xlink:href="#DejaVuSans-54" transform="translate(282.492188 0)"/>
      <use xlink:href="#DejaVuSans-41" transform="translate(335.826172 0)"/>
      <use xlink:href="#DejaVuSans-20" transform="translate(404.234375 0)"/>
      <use xlink:href="#DejaVuSans-4d" transform="translate(436.021484 0)"/>
      <use xlink:href="#DejaVuSans-3d" transform="translate(522.300781 0)"/>
      <use xlink:href="#DejaVuSans-34" transform="translate(606.089844 0)"/>
     </g>
    </g>
   </g>
  </g>
 </g>
 <defs>
  <clipPath id="p438f110266">
   <rect x="90" y="51.84" width="558" height="332.64"/>
  </clipPath>
 </defs>
</svg>
